M48
; DRILL file {KiCad (5.1.4)-1} date 2020/4/14 17:00:21
; FORMAT={-:-/ absolute / metric / decimal}
; #@! TF.CreationDate,2020-04-14T17:00:21+08:00
; #@! TF.GenerationSoftware,Kicad,Pcbnew,(5.1.4)-1
; #@! TF.FileFunction,Plated,1,2,PTH
FMAT,2
METRIC
T1C0.305
T2C0.650
T3C1.000
%
G90
G05
T1
X86.106Y-66.106
X86.525Y-65.308
X86.781Y-64.546
X87.694Y-101.295
X89.489Y-84.785
X90.249Y-84.732
X90.363Y-88.709
X90.998Y-84.588
X91.739Y-84.413
X91.948Y-97.625
X92.05Y-96.388
X92.215Y-102.654
X92.283Y-93.416
X92.304Y-95.017
X92.5Y-84.373
X92.842Y-92.527
X94.371Y-96.296
X94.501Y-99.53
X94.742Y-103.619
X94.803Y-95.199
X94.932Y-93.942
X94.958Y-106.134
X96.203Y-102.73
X96.51Y-63.419
X96.936Y-84.389
X97.368Y-83.617
X97.603Y-84.758
X97.611Y-63.349
X98.567Y-63.353
X123.903Y-60.743
X140.03Y-82.728
X140.576Y-83.363
X140.881Y-84.125
X143.599Y-80.848
X143.954Y-81.712
X144.539Y-82.321
T2
X73.139Y-147.409
X73.139Y-148.679
X73.139Y-149.949
X73.139Y-151.219
X73.139Y-152.489
T3
X68.923Y-140.945
X71.463Y-140.945
X74.003Y-140.945
T0
M30
