G04 #@! TF.GenerationSoftware,KiCad,Pcbnew,(5.1.4)-1*
G04 #@! TF.CreationDate,2020-04-14T17:00:19+08:00*
G04 #@! TF.ProjectId,viper_plate_v2,76697065-725f-4706-9c61-74655f76322e,rev?*
G04 #@! TF.SameCoordinates,Original*
G04 #@! TF.FileFunction,Copper,L2,Bot*
G04 #@! TF.FilePolarity,Positive*
%FSLAX46Y46*%
G04 Gerber Fmt 4.6, Leading zero omitted, Abs format (unit mm)*
G04 Created by KiCad (PCBNEW (5.1.4)-1) date 2020-04-14 17:00:19*
%MOMM*%
%LPD*%
G04 APERTURE LIST*
%ADD10R,1.000000X1.000000*%
%ADD11O,1.000000X1.000000*%
%ADD12R,1.700000X1.700000*%
%ADD13O,1.700000X1.700000*%
%ADD14C,0.609600*%
%ADD15C,0.508000*%
%ADD16C,0.203200*%
G04 APERTURE END LIST*
D10*
X73139300Y-147408900D03*
D11*
X73139300Y-148678900D03*
X73139300Y-149948900D03*
X73139300Y-151218900D03*
X73139300Y-152488900D03*
D12*
X74002900Y-140944600D03*
D13*
X71462900Y-140944600D03*
X68922900Y-140944600D03*
D14*
X94742000Y-103619300D03*
X94957900Y-106133900D03*
X94500700Y-99529900D03*
X90363019Y-88709500D03*
X87693500Y-101295200D03*
X92214700Y-102654100D03*
X96202500Y-102730300D03*
X123902701Y-60742599D03*
X96509840Y-63418720D03*
X86780697Y-64545537D03*
X97610800Y-63349000D03*
X86524955Y-65308470D03*
X86106000Y-66106042D03*
X98567240Y-63352680D03*
X91948000Y-97624900D03*
X89489280Y-84785200D03*
X92049600Y-96387920D03*
X90249421Y-84731837D03*
X92303611Y-95017489D03*
X90997649Y-84587560D03*
X92283280Y-93416120D03*
X91739326Y-84412698D03*
X92842090Y-92527120D03*
X92500317Y-84373267D03*
X97368491Y-83616787D03*
X94371160Y-96296480D03*
X96936259Y-84389021D03*
X94802960Y-95199200D03*
X94932500Y-93941900D03*
X97603246Y-84757518D03*
X140030200Y-82727800D03*
X143598900Y-80848200D03*
X140576300Y-83362800D03*
X143954500Y-81711800D03*
X140881100Y-84124800D03*
X144538700Y-82321400D03*
D15*
X94742000Y-103619300D02*
X94742000Y-105918000D01*
X94742000Y-105918000D02*
X94957900Y-106133900D01*
X94500700Y-99529900D02*
X92443300Y-99529900D01*
X92443300Y-99529900D02*
X90363019Y-97449619D01*
X90363019Y-97449619D02*
X90363019Y-89140552D01*
X90363019Y-89140552D02*
X90363019Y-88709500D01*
X92735400Y-101295200D02*
X94500700Y-99529900D01*
X87693500Y-101295200D02*
X92735400Y-101295200D01*
X92214700Y-102654100D02*
X96126300Y-102654100D01*
X96126300Y-102654100D02*
X96202500Y-102730300D01*
X123902701Y-81875399D02*
X123902701Y-61173651D01*
X96202500Y-102730300D02*
X111328200Y-102730300D01*
X114769900Y-84886800D02*
X116255800Y-83400900D01*
X111328200Y-102730300D02*
X114769900Y-99288600D01*
X122377200Y-83400900D02*
X123902701Y-81875399D01*
X123902701Y-61173651D02*
X123902701Y-60742599D01*
X114769900Y-99288600D02*
X114769900Y-84886800D01*
X116255800Y-83400900D02*
X122377200Y-83400900D01*
D16*
X96509840Y-63418720D02*
X94818200Y-65110360D01*
X87345520Y-65110360D02*
X86780697Y-64545537D01*
X94818200Y-65110360D02*
X87345520Y-65110360D01*
X86697696Y-65481211D02*
X86524955Y-65308470D01*
X97610800Y-63349000D02*
X95478589Y-65481211D01*
X95478589Y-65481211D02*
X86697696Y-65481211D01*
X98567240Y-63352680D02*
X96052640Y-65867280D01*
X96052640Y-65867280D02*
X86344762Y-65867280D01*
X86344762Y-65867280D02*
X86106000Y-66106042D01*
X89794079Y-85089999D02*
X89489280Y-84785200D01*
X90921829Y-96598729D02*
X90921829Y-86217749D01*
X90921829Y-86217749D02*
X89794079Y-85089999D01*
X91948000Y-97624900D02*
X90921829Y-96598729D01*
X91312989Y-85795405D02*
X90554220Y-85036636D01*
X92049600Y-96387920D02*
X91312989Y-95651309D01*
X91312989Y-95651309D02*
X91312989Y-85795405D01*
X90554220Y-85036636D02*
X90249421Y-84731837D01*
X91668600Y-94382478D02*
X91668600Y-85258511D01*
X92303611Y-95017489D02*
X91668600Y-94382478D01*
X91302448Y-84892359D02*
X90997649Y-84587560D01*
X91668600Y-85258511D02*
X91302448Y-84892359D01*
X92283280Y-84956652D02*
X92044125Y-84717497D01*
X92044125Y-84717497D02*
X91739326Y-84412698D01*
X92283280Y-93416120D02*
X92283280Y-84956652D01*
X92842090Y-92527120D02*
X92842090Y-84715040D01*
X92805116Y-84678066D02*
X92500317Y-84373267D01*
X92842090Y-84715040D02*
X92805116Y-84678066D01*
X93672661Y-95597981D02*
X94066361Y-95991681D01*
X94066361Y-95991681D02*
X94371160Y-96296480D01*
X93672661Y-86851840D02*
X93672661Y-95597981D01*
X96907714Y-83616787D02*
X93672661Y-86851840D01*
X97368491Y-83616787D02*
X96907714Y-83616787D01*
X96936259Y-84389021D02*
X94345761Y-86979519D01*
X94345761Y-86979519D02*
X94345761Y-94742001D01*
X94345761Y-94742001D02*
X94498161Y-94894401D01*
X94498161Y-94894401D02*
X94802960Y-95199200D01*
X94932500Y-87428264D02*
X97298447Y-85062317D01*
X97298447Y-85062317D02*
X97603246Y-84757518D01*
X94932500Y-93941900D02*
X94932500Y-87428264D01*
X141719300Y-82727800D02*
X140030200Y-82727800D01*
X143598900Y-80848200D02*
X141719300Y-82727800D01*
X142303500Y-83362800D02*
X140576300Y-83362800D01*
X143954500Y-81711800D02*
X142303500Y-83362800D01*
X142735300Y-84124800D02*
X144538700Y-82321400D01*
X140881100Y-84124800D02*
X142735300Y-84124800D01*
M02*
