G04 #@! TF.GenerationSoftware,KiCad,Pcbnew,(5.1.4)-1*
G04 #@! TF.CreationDate,2020-04-14T17:00:19+08:00*
G04 #@! TF.ProjectId,viper_plate_v2,76697065-725f-4706-9c61-74655f76322e,rev?*
G04 #@! TF.SameCoordinates,Original*
G04 #@! TF.FileFunction,Legend,Bot*
G04 #@! TF.FilePolarity,Positive*
%FSLAX46Y46*%
G04 Gerber Fmt 4.6, Leading zero omitted, Abs format (unit mm)*
G04 Created by KiCad (PCBNEW (5.1.4)-1) date 2020-04-14 17:00:19*
%MOMM*%
%LPD*%
G04 APERTURE LIST*
%ADD10C,0.120000*%
G04 APERTURE END LIST*
D10*
X72379300Y-146713900D02*
X71579300Y-146713900D01*
X71579300Y-146713900D02*
X71579300Y-153183900D01*
X71579300Y-153183900D02*
X72699300Y-153183900D01*
X72699300Y-153183900D02*
X72699300Y-153108577D01*
X71579300Y-147148900D02*
X67579300Y-147148900D01*
X67579300Y-147148900D02*
X67579300Y-147668900D01*
X67579300Y-147668900D02*
X71579300Y-147668900D01*
X71579300Y-147208900D02*
X67579300Y-147208900D01*
X71579300Y-147328900D02*
X67579300Y-147328900D01*
X71579300Y-147448900D02*
X67579300Y-147448900D01*
X71579300Y-147568900D02*
X67579300Y-147568900D01*
X72379300Y-148043900D02*
X71579300Y-148043900D01*
X71579300Y-148418900D02*
X67579300Y-148418900D01*
X67579300Y-148418900D02*
X67579300Y-148938900D01*
X67579300Y-148938900D02*
X71579300Y-148938900D01*
X72699300Y-149313900D02*
X71579300Y-149313900D01*
X72699300Y-149298577D02*
X72699300Y-149329223D01*
X71579300Y-149688900D02*
X67579300Y-149688900D01*
X67579300Y-149688900D02*
X67579300Y-150208900D01*
X67579300Y-150208900D02*
X71579300Y-150208900D01*
X72699300Y-150583900D02*
X71579300Y-150583900D01*
X72699300Y-150568577D02*
X72699300Y-150599223D01*
X71579300Y-150958900D02*
X67579300Y-150958900D01*
X67579300Y-150958900D02*
X67579300Y-151478900D01*
X67579300Y-151478900D02*
X71579300Y-151478900D01*
X72699300Y-151853900D02*
X71579300Y-151853900D01*
X72699300Y-151838577D02*
X72699300Y-151869223D01*
X71579300Y-152228900D02*
X67579300Y-152228900D01*
X67579300Y-152228900D02*
X67579300Y-152748900D01*
X67579300Y-152748900D02*
X71579300Y-152748900D01*
X73899300Y-147408900D02*
X73899300Y-146648900D01*
X73899300Y-146648900D02*
X73139300Y-146648900D01*
X67592900Y-142274600D02*
X67592900Y-139614600D01*
X72732900Y-142274600D02*
X67592900Y-142274600D01*
X72732900Y-139614600D02*
X67592900Y-139614600D01*
X72732900Y-142274600D02*
X72732900Y-139614600D01*
X74002900Y-142274600D02*
X75332900Y-142274600D01*
X75332900Y-142274600D02*
X75332900Y-140944600D01*
M02*
