G04 #@! TF.GenerationSoftware,KiCad,Pcbnew,(5.1.4)-1*
G04 #@! TF.CreationDate,2020-04-14T17:00:19+08:00*
G04 #@! TF.ProjectId,viper_plate_v2,76697065-725f-4706-9c61-74655f76322e,rev?*
G04 #@! TF.SameCoordinates,Original*
G04 #@! TF.FileFunction,Copper,L1,Top*
G04 #@! TF.FilePolarity,Positive*
%FSLAX46Y46*%
G04 Gerber Fmt 4.6, Leading zero omitted, Abs format (unit mm)*
G04 Created by KiCad (PCBNEW (5.1.4)-1) date 2020-04-14 17:00:19*
%MOMM*%
%LPD*%
G04 APERTURE LIST*
%ADD10C,0.100000*%
%ADD11C,0.875000*%
%ADD12C,0.590000*%
%ADD13R,1.000000X1.000000*%
%ADD14O,1.000000X1.000000*%
%ADD15R,1.300000X0.800000*%
%ADD16R,0.450000X0.450000*%
%ADD17R,1.700000X1.700000*%
%ADD18O,1.700000X1.700000*%
%ADD19C,0.609600*%
%ADD20C,0.508000*%
%ADD21C,0.203200*%
G04 APERTURE END LIST*
D10*
G36*
X92480291Y-105723453D02*
G01*
X92501526Y-105726603D01*
X92522350Y-105731819D01*
X92542562Y-105739051D01*
X92561968Y-105748230D01*
X92580381Y-105759266D01*
X92597624Y-105772054D01*
X92613530Y-105786470D01*
X92627946Y-105802376D01*
X92640734Y-105819619D01*
X92651770Y-105838032D01*
X92660949Y-105857438D01*
X92668181Y-105877650D01*
X92673397Y-105898474D01*
X92676547Y-105919709D01*
X92677600Y-105941150D01*
X92677600Y-106453650D01*
X92676547Y-106475091D01*
X92673397Y-106496326D01*
X92668181Y-106517150D01*
X92660949Y-106537362D01*
X92651770Y-106556768D01*
X92640734Y-106575181D01*
X92627946Y-106592424D01*
X92613530Y-106608330D01*
X92597624Y-106622746D01*
X92580381Y-106635534D01*
X92561968Y-106646570D01*
X92542562Y-106655749D01*
X92522350Y-106662981D01*
X92501526Y-106668197D01*
X92480291Y-106671347D01*
X92458850Y-106672400D01*
X92021350Y-106672400D01*
X91999909Y-106671347D01*
X91978674Y-106668197D01*
X91957850Y-106662981D01*
X91937638Y-106655749D01*
X91918232Y-106646570D01*
X91899819Y-106635534D01*
X91882576Y-106622746D01*
X91866670Y-106608330D01*
X91852254Y-106592424D01*
X91839466Y-106575181D01*
X91828430Y-106556768D01*
X91819251Y-106537362D01*
X91812019Y-106517150D01*
X91806803Y-106496326D01*
X91803653Y-106475091D01*
X91802600Y-106453650D01*
X91802600Y-105941150D01*
X91803653Y-105919709D01*
X91806803Y-105898474D01*
X91812019Y-105877650D01*
X91819251Y-105857438D01*
X91828430Y-105838032D01*
X91839466Y-105819619D01*
X91852254Y-105802376D01*
X91866670Y-105786470D01*
X91882576Y-105772054D01*
X91899819Y-105759266D01*
X91918232Y-105748230D01*
X91937638Y-105739051D01*
X91957850Y-105731819D01*
X91978674Y-105726603D01*
X91999909Y-105723453D01*
X92021350Y-105722400D01*
X92458850Y-105722400D01*
X92480291Y-105723453D01*
X92480291Y-105723453D01*
G37*
D11*
X92240100Y-106197400D03*
D10*
G36*
X94055291Y-105723453D02*
G01*
X94076526Y-105726603D01*
X94097350Y-105731819D01*
X94117562Y-105739051D01*
X94136968Y-105748230D01*
X94155381Y-105759266D01*
X94172624Y-105772054D01*
X94188530Y-105786470D01*
X94202946Y-105802376D01*
X94215734Y-105819619D01*
X94226770Y-105838032D01*
X94235949Y-105857438D01*
X94243181Y-105877650D01*
X94248397Y-105898474D01*
X94251547Y-105919709D01*
X94252600Y-105941150D01*
X94252600Y-106453650D01*
X94251547Y-106475091D01*
X94248397Y-106496326D01*
X94243181Y-106517150D01*
X94235949Y-106537362D01*
X94226770Y-106556768D01*
X94215734Y-106575181D01*
X94202946Y-106592424D01*
X94188530Y-106608330D01*
X94172624Y-106622746D01*
X94155381Y-106635534D01*
X94136968Y-106646570D01*
X94117562Y-106655749D01*
X94097350Y-106662981D01*
X94076526Y-106668197D01*
X94055291Y-106671347D01*
X94033850Y-106672400D01*
X93596350Y-106672400D01*
X93574909Y-106671347D01*
X93553674Y-106668197D01*
X93532850Y-106662981D01*
X93512638Y-106655749D01*
X93493232Y-106646570D01*
X93474819Y-106635534D01*
X93457576Y-106622746D01*
X93441670Y-106608330D01*
X93427254Y-106592424D01*
X93414466Y-106575181D01*
X93403430Y-106556768D01*
X93394251Y-106537362D01*
X93387019Y-106517150D01*
X93381803Y-106496326D01*
X93378653Y-106475091D01*
X93377600Y-106453650D01*
X93377600Y-105941150D01*
X93378653Y-105919709D01*
X93381803Y-105898474D01*
X93387019Y-105877650D01*
X93394251Y-105857438D01*
X93403430Y-105838032D01*
X93414466Y-105819619D01*
X93427254Y-105802376D01*
X93441670Y-105786470D01*
X93457576Y-105772054D01*
X93474819Y-105759266D01*
X93493232Y-105748230D01*
X93512638Y-105739051D01*
X93532850Y-105731819D01*
X93553674Y-105726603D01*
X93574909Y-105723453D01*
X93596350Y-105722400D01*
X94033850Y-105722400D01*
X94055291Y-105723453D01*
X94055291Y-105723453D01*
G37*
D11*
X93815100Y-106197400D03*
D10*
G36*
X94944091Y-100503753D02*
G01*
X94965326Y-100506903D01*
X94986150Y-100512119D01*
X95006362Y-100519351D01*
X95025768Y-100528530D01*
X95044181Y-100539566D01*
X95061424Y-100552354D01*
X95077330Y-100566770D01*
X95091746Y-100582676D01*
X95104534Y-100599919D01*
X95115570Y-100618332D01*
X95124749Y-100637738D01*
X95131981Y-100657950D01*
X95137197Y-100678774D01*
X95140347Y-100700009D01*
X95141400Y-100721450D01*
X95141400Y-101233950D01*
X95140347Y-101255391D01*
X95137197Y-101276626D01*
X95131981Y-101297450D01*
X95124749Y-101317662D01*
X95115570Y-101337068D01*
X95104534Y-101355481D01*
X95091746Y-101372724D01*
X95077330Y-101388630D01*
X95061424Y-101403046D01*
X95044181Y-101415834D01*
X95025768Y-101426870D01*
X95006362Y-101436049D01*
X94986150Y-101443281D01*
X94965326Y-101448497D01*
X94944091Y-101451647D01*
X94922650Y-101452700D01*
X94485150Y-101452700D01*
X94463709Y-101451647D01*
X94442474Y-101448497D01*
X94421650Y-101443281D01*
X94401438Y-101436049D01*
X94382032Y-101426870D01*
X94363619Y-101415834D01*
X94346376Y-101403046D01*
X94330470Y-101388630D01*
X94316054Y-101372724D01*
X94303266Y-101355481D01*
X94292230Y-101337068D01*
X94283051Y-101317662D01*
X94275819Y-101297450D01*
X94270603Y-101276626D01*
X94267453Y-101255391D01*
X94266400Y-101233950D01*
X94266400Y-100721450D01*
X94267453Y-100700009D01*
X94270603Y-100678774D01*
X94275819Y-100657950D01*
X94283051Y-100637738D01*
X94292230Y-100618332D01*
X94303266Y-100599919D01*
X94316054Y-100582676D01*
X94330470Y-100566770D01*
X94346376Y-100552354D01*
X94363619Y-100539566D01*
X94382032Y-100528530D01*
X94401438Y-100519351D01*
X94421650Y-100512119D01*
X94442474Y-100506903D01*
X94463709Y-100503753D01*
X94485150Y-100502700D01*
X94922650Y-100502700D01*
X94944091Y-100503753D01*
X94944091Y-100503753D01*
G37*
D11*
X94703900Y-100977700D03*
D10*
G36*
X96519091Y-100503753D02*
G01*
X96540326Y-100506903D01*
X96561150Y-100512119D01*
X96581362Y-100519351D01*
X96600768Y-100528530D01*
X96619181Y-100539566D01*
X96636424Y-100552354D01*
X96652330Y-100566770D01*
X96666746Y-100582676D01*
X96679534Y-100599919D01*
X96690570Y-100618332D01*
X96699749Y-100637738D01*
X96706981Y-100657950D01*
X96712197Y-100678774D01*
X96715347Y-100700009D01*
X96716400Y-100721450D01*
X96716400Y-101233950D01*
X96715347Y-101255391D01*
X96712197Y-101276626D01*
X96706981Y-101297450D01*
X96699749Y-101317662D01*
X96690570Y-101337068D01*
X96679534Y-101355481D01*
X96666746Y-101372724D01*
X96652330Y-101388630D01*
X96636424Y-101403046D01*
X96619181Y-101415834D01*
X96600768Y-101426870D01*
X96581362Y-101436049D01*
X96561150Y-101443281D01*
X96540326Y-101448497D01*
X96519091Y-101451647D01*
X96497650Y-101452700D01*
X96060150Y-101452700D01*
X96038709Y-101451647D01*
X96017474Y-101448497D01*
X95996650Y-101443281D01*
X95976438Y-101436049D01*
X95957032Y-101426870D01*
X95938619Y-101415834D01*
X95921376Y-101403046D01*
X95905470Y-101388630D01*
X95891054Y-101372724D01*
X95878266Y-101355481D01*
X95867230Y-101337068D01*
X95858051Y-101317662D01*
X95850819Y-101297450D01*
X95845603Y-101276626D01*
X95842453Y-101255391D01*
X95841400Y-101233950D01*
X95841400Y-100721450D01*
X95842453Y-100700009D01*
X95845603Y-100678774D01*
X95850819Y-100657950D01*
X95858051Y-100637738D01*
X95867230Y-100618332D01*
X95878266Y-100599919D01*
X95891054Y-100582676D01*
X95905470Y-100566770D01*
X95921376Y-100552354D01*
X95938619Y-100539566D01*
X95957032Y-100528530D01*
X95976438Y-100519351D01*
X95996650Y-100512119D01*
X96017474Y-100506903D01*
X96038709Y-100503753D01*
X96060150Y-100502700D01*
X96497650Y-100502700D01*
X96519091Y-100503753D01*
X96519091Y-100503753D01*
G37*
D11*
X96278900Y-100977700D03*
D10*
G36*
X78978158Y-102195110D02*
G01*
X78992476Y-102197234D01*
X79006517Y-102200751D01*
X79020146Y-102205628D01*
X79033231Y-102211817D01*
X79045647Y-102219258D01*
X79057273Y-102227881D01*
X79067998Y-102237602D01*
X79077719Y-102248327D01*
X79086342Y-102259953D01*
X79093783Y-102272369D01*
X79099972Y-102285454D01*
X79104849Y-102299083D01*
X79108366Y-102313124D01*
X79110490Y-102327442D01*
X79111200Y-102341900D01*
X79111200Y-102686900D01*
X79110490Y-102701358D01*
X79108366Y-102715676D01*
X79104849Y-102729717D01*
X79099972Y-102743346D01*
X79093783Y-102756431D01*
X79086342Y-102768847D01*
X79077719Y-102780473D01*
X79067998Y-102791198D01*
X79057273Y-102800919D01*
X79045647Y-102809542D01*
X79033231Y-102816983D01*
X79020146Y-102823172D01*
X79006517Y-102828049D01*
X78992476Y-102831566D01*
X78978158Y-102833690D01*
X78963700Y-102834400D01*
X78668700Y-102834400D01*
X78654242Y-102833690D01*
X78639924Y-102831566D01*
X78625883Y-102828049D01*
X78612254Y-102823172D01*
X78599169Y-102816983D01*
X78586753Y-102809542D01*
X78575127Y-102800919D01*
X78564402Y-102791198D01*
X78554681Y-102780473D01*
X78546058Y-102768847D01*
X78538617Y-102756431D01*
X78532428Y-102743346D01*
X78527551Y-102729717D01*
X78524034Y-102715676D01*
X78521910Y-102701358D01*
X78521200Y-102686900D01*
X78521200Y-102341900D01*
X78521910Y-102327442D01*
X78524034Y-102313124D01*
X78527551Y-102299083D01*
X78532428Y-102285454D01*
X78538617Y-102272369D01*
X78546058Y-102259953D01*
X78554681Y-102248327D01*
X78564402Y-102237602D01*
X78575127Y-102227881D01*
X78586753Y-102219258D01*
X78599169Y-102211817D01*
X78612254Y-102205628D01*
X78625883Y-102200751D01*
X78639924Y-102197234D01*
X78654242Y-102195110D01*
X78668700Y-102194400D01*
X78963700Y-102194400D01*
X78978158Y-102195110D01*
X78978158Y-102195110D01*
G37*
D12*
X78816200Y-102514400D03*
D10*
G36*
X78008158Y-102195110D02*
G01*
X78022476Y-102197234D01*
X78036517Y-102200751D01*
X78050146Y-102205628D01*
X78063231Y-102211817D01*
X78075647Y-102219258D01*
X78087273Y-102227881D01*
X78097998Y-102237602D01*
X78107719Y-102248327D01*
X78116342Y-102259953D01*
X78123783Y-102272369D01*
X78129972Y-102285454D01*
X78134849Y-102299083D01*
X78138366Y-102313124D01*
X78140490Y-102327442D01*
X78141200Y-102341900D01*
X78141200Y-102686900D01*
X78140490Y-102701358D01*
X78138366Y-102715676D01*
X78134849Y-102729717D01*
X78129972Y-102743346D01*
X78123783Y-102756431D01*
X78116342Y-102768847D01*
X78107719Y-102780473D01*
X78097998Y-102791198D01*
X78087273Y-102800919D01*
X78075647Y-102809542D01*
X78063231Y-102816983D01*
X78050146Y-102823172D01*
X78036517Y-102828049D01*
X78022476Y-102831566D01*
X78008158Y-102833690D01*
X77993700Y-102834400D01*
X77698700Y-102834400D01*
X77684242Y-102833690D01*
X77669924Y-102831566D01*
X77655883Y-102828049D01*
X77642254Y-102823172D01*
X77629169Y-102816983D01*
X77616753Y-102809542D01*
X77605127Y-102800919D01*
X77594402Y-102791198D01*
X77584681Y-102780473D01*
X77576058Y-102768847D01*
X77568617Y-102756431D01*
X77562428Y-102743346D01*
X77557551Y-102729717D01*
X77554034Y-102715676D01*
X77551910Y-102701358D01*
X77551200Y-102686900D01*
X77551200Y-102341900D01*
X77551910Y-102327442D01*
X77554034Y-102313124D01*
X77557551Y-102299083D01*
X77562428Y-102285454D01*
X77568617Y-102272369D01*
X77576058Y-102259953D01*
X77584681Y-102248327D01*
X77594402Y-102237602D01*
X77605127Y-102227881D01*
X77616753Y-102219258D01*
X77629169Y-102211817D01*
X77642254Y-102205628D01*
X77655883Y-102200751D01*
X77669924Y-102197234D01*
X77684242Y-102195110D01*
X77698700Y-102194400D01*
X77993700Y-102194400D01*
X78008158Y-102195110D01*
X78008158Y-102195110D01*
G37*
D12*
X77846200Y-102514400D03*
D10*
G36*
X93404958Y-103485310D02*
G01*
X93419276Y-103487434D01*
X93433317Y-103490951D01*
X93446946Y-103495828D01*
X93460031Y-103502017D01*
X93472447Y-103509458D01*
X93484073Y-103518081D01*
X93494798Y-103527802D01*
X93504519Y-103538527D01*
X93513142Y-103550153D01*
X93520583Y-103562569D01*
X93526772Y-103575654D01*
X93531649Y-103589283D01*
X93535166Y-103603324D01*
X93537290Y-103617642D01*
X93538000Y-103632100D01*
X93538000Y-103927100D01*
X93537290Y-103941558D01*
X93535166Y-103955876D01*
X93531649Y-103969917D01*
X93526772Y-103983546D01*
X93520583Y-103996631D01*
X93513142Y-104009047D01*
X93504519Y-104020673D01*
X93494798Y-104031398D01*
X93484073Y-104041119D01*
X93472447Y-104049742D01*
X93460031Y-104057183D01*
X93446946Y-104063372D01*
X93433317Y-104068249D01*
X93419276Y-104071766D01*
X93404958Y-104073890D01*
X93390500Y-104074600D01*
X93045500Y-104074600D01*
X93031042Y-104073890D01*
X93016724Y-104071766D01*
X93002683Y-104068249D01*
X92989054Y-104063372D01*
X92975969Y-104057183D01*
X92963553Y-104049742D01*
X92951927Y-104041119D01*
X92941202Y-104031398D01*
X92931481Y-104020673D01*
X92922858Y-104009047D01*
X92915417Y-103996631D01*
X92909228Y-103983546D01*
X92904351Y-103969917D01*
X92900834Y-103955876D01*
X92898710Y-103941558D01*
X92898000Y-103927100D01*
X92898000Y-103632100D01*
X92898710Y-103617642D01*
X92900834Y-103603324D01*
X92904351Y-103589283D01*
X92909228Y-103575654D01*
X92915417Y-103562569D01*
X92922858Y-103550153D01*
X92931481Y-103538527D01*
X92941202Y-103527802D01*
X92951927Y-103518081D01*
X92963553Y-103509458D01*
X92975969Y-103502017D01*
X92989054Y-103495828D01*
X93002683Y-103490951D01*
X93016724Y-103487434D01*
X93031042Y-103485310D01*
X93045500Y-103484600D01*
X93390500Y-103484600D01*
X93404958Y-103485310D01*
X93404958Y-103485310D01*
G37*
D12*
X93218000Y-103779600D03*
D10*
G36*
X93404958Y-104455310D02*
G01*
X93419276Y-104457434D01*
X93433317Y-104460951D01*
X93446946Y-104465828D01*
X93460031Y-104472017D01*
X93472447Y-104479458D01*
X93484073Y-104488081D01*
X93494798Y-104497802D01*
X93504519Y-104508527D01*
X93513142Y-104520153D01*
X93520583Y-104532569D01*
X93526772Y-104545654D01*
X93531649Y-104559283D01*
X93535166Y-104573324D01*
X93537290Y-104587642D01*
X93538000Y-104602100D01*
X93538000Y-104897100D01*
X93537290Y-104911558D01*
X93535166Y-104925876D01*
X93531649Y-104939917D01*
X93526772Y-104953546D01*
X93520583Y-104966631D01*
X93513142Y-104979047D01*
X93504519Y-104990673D01*
X93494798Y-105001398D01*
X93484073Y-105011119D01*
X93472447Y-105019742D01*
X93460031Y-105027183D01*
X93446946Y-105033372D01*
X93433317Y-105038249D01*
X93419276Y-105041766D01*
X93404958Y-105043890D01*
X93390500Y-105044600D01*
X93045500Y-105044600D01*
X93031042Y-105043890D01*
X93016724Y-105041766D01*
X93002683Y-105038249D01*
X92989054Y-105033372D01*
X92975969Y-105027183D01*
X92963553Y-105019742D01*
X92951927Y-105011119D01*
X92941202Y-105001398D01*
X92931481Y-104990673D01*
X92922858Y-104979047D01*
X92915417Y-104966631D01*
X92909228Y-104953546D01*
X92904351Y-104939917D01*
X92900834Y-104925876D01*
X92898710Y-104911558D01*
X92898000Y-104897100D01*
X92898000Y-104602100D01*
X92898710Y-104587642D01*
X92900834Y-104573324D01*
X92904351Y-104559283D01*
X92909228Y-104545654D01*
X92915417Y-104532569D01*
X92922858Y-104520153D01*
X92931481Y-104508527D01*
X92941202Y-104497802D01*
X92951927Y-104488081D01*
X92963553Y-104479458D01*
X92975969Y-104472017D01*
X92989054Y-104465828D01*
X93002683Y-104460951D01*
X93016724Y-104457434D01*
X93031042Y-104455310D01*
X93045500Y-104454600D01*
X93390500Y-104454600D01*
X93404958Y-104455310D01*
X93404958Y-104455310D01*
G37*
D12*
X93218000Y-104749600D03*
D10*
G36*
X84509878Y-83665270D02*
G01*
X84524196Y-83667394D01*
X84538237Y-83670911D01*
X84551866Y-83675788D01*
X84564951Y-83681977D01*
X84577367Y-83689418D01*
X84588993Y-83698041D01*
X84599718Y-83707762D01*
X84609439Y-83718487D01*
X84618062Y-83730113D01*
X84625503Y-83742529D01*
X84631692Y-83755614D01*
X84636569Y-83769243D01*
X84640086Y-83783284D01*
X84642210Y-83797602D01*
X84642920Y-83812060D01*
X84642920Y-84107060D01*
X84642210Y-84121518D01*
X84640086Y-84135836D01*
X84636569Y-84149877D01*
X84631692Y-84163506D01*
X84625503Y-84176591D01*
X84618062Y-84189007D01*
X84609439Y-84200633D01*
X84599718Y-84211358D01*
X84588993Y-84221079D01*
X84577367Y-84229702D01*
X84564951Y-84237143D01*
X84551866Y-84243332D01*
X84538237Y-84248209D01*
X84524196Y-84251726D01*
X84509878Y-84253850D01*
X84495420Y-84254560D01*
X84150420Y-84254560D01*
X84135962Y-84253850D01*
X84121644Y-84251726D01*
X84107603Y-84248209D01*
X84093974Y-84243332D01*
X84080889Y-84237143D01*
X84068473Y-84229702D01*
X84056847Y-84221079D01*
X84046122Y-84211358D01*
X84036401Y-84200633D01*
X84027778Y-84189007D01*
X84020337Y-84176591D01*
X84014148Y-84163506D01*
X84009271Y-84149877D01*
X84005754Y-84135836D01*
X84003630Y-84121518D01*
X84002920Y-84107060D01*
X84002920Y-83812060D01*
X84003630Y-83797602D01*
X84005754Y-83783284D01*
X84009271Y-83769243D01*
X84014148Y-83755614D01*
X84020337Y-83742529D01*
X84027778Y-83730113D01*
X84036401Y-83718487D01*
X84046122Y-83707762D01*
X84056847Y-83698041D01*
X84068473Y-83689418D01*
X84080889Y-83681977D01*
X84093974Y-83675788D01*
X84107603Y-83670911D01*
X84121644Y-83667394D01*
X84135962Y-83665270D01*
X84150420Y-83664560D01*
X84495420Y-83664560D01*
X84509878Y-83665270D01*
X84509878Y-83665270D01*
G37*
D12*
X84322920Y-83959560D03*
D10*
G36*
X84509878Y-82695270D02*
G01*
X84524196Y-82697394D01*
X84538237Y-82700911D01*
X84551866Y-82705788D01*
X84564951Y-82711977D01*
X84577367Y-82719418D01*
X84588993Y-82728041D01*
X84599718Y-82737762D01*
X84609439Y-82748487D01*
X84618062Y-82760113D01*
X84625503Y-82772529D01*
X84631692Y-82785614D01*
X84636569Y-82799243D01*
X84640086Y-82813284D01*
X84642210Y-82827602D01*
X84642920Y-82842060D01*
X84642920Y-83137060D01*
X84642210Y-83151518D01*
X84640086Y-83165836D01*
X84636569Y-83179877D01*
X84631692Y-83193506D01*
X84625503Y-83206591D01*
X84618062Y-83219007D01*
X84609439Y-83230633D01*
X84599718Y-83241358D01*
X84588993Y-83251079D01*
X84577367Y-83259702D01*
X84564951Y-83267143D01*
X84551866Y-83273332D01*
X84538237Y-83278209D01*
X84524196Y-83281726D01*
X84509878Y-83283850D01*
X84495420Y-83284560D01*
X84150420Y-83284560D01*
X84135962Y-83283850D01*
X84121644Y-83281726D01*
X84107603Y-83278209D01*
X84093974Y-83273332D01*
X84080889Y-83267143D01*
X84068473Y-83259702D01*
X84056847Y-83251079D01*
X84046122Y-83241358D01*
X84036401Y-83230633D01*
X84027778Y-83219007D01*
X84020337Y-83206591D01*
X84014148Y-83193506D01*
X84009271Y-83179877D01*
X84005754Y-83165836D01*
X84003630Y-83151518D01*
X84002920Y-83137060D01*
X84002920Y-82842060D01*
X84003630Y-82827602D01*
X84005754Y-82813284D01*
X84009271Y-82799243D01*
X84014148Y-82785614D01*
X84020337Y-82772529D01*
X84027778Y-82760113D01*
X84036401Y-82748487D01*
X84046122Y-82737762D01*
X84056847Y-82728041D01*
X84068473Y-82719418D01*
X84080889Y-82711977D01*
X84093974Y-82705788D01*
X84107603Y-82700911D01*
X84121644Y-82697394D01*
X84135962Y-82695270D01*
X84150420Y-82694560D01*
X84495420Y-82694560D01*
X84509878Y-82695270D01*
X84509878Y-82695270D01*
G37*
D12*
X84322920Y-82989560D03*
D10*
G36*
X85525878Y-81887550D02*
G01*
X85540196Y-81889674D01*
X85554237Y-81893191D01*
X85567866Y-81898068D01*
X85580951Y-81904257D01*
X85593367Y-81911698D01*
X85604993Y-81920321D01*
X85615718Y-81930042D01*
X85625439Y-81940767D01*
X85634062Y-81952393D01*
X85641503Y-81964809D01*
X85647692Y-81977894D01*
X85652569Y-81991523D01*
X85656086Y-82005564D01*
X85658210Y-82019882D01*
X85658920Y-82034340D01*
X85658920Y-82329340D01*
X85658210Y-82343798D01*
X85656086Y-82358116D01*
X85652569Y-82372157D01*
X85647692Y-82385786D01*
X85641503Y-82398871D01*
X85634062Y-82411287D01*
X85625439Y-82422913D01*
X85615718Y-82433638D01*
X85604993Y-82443359D01*
X85593367Y-82451982D01*
X85580951Y-82459423D01*
X85567866Y-82465612D01*
X85554237Y-82470489D01*
X85540196Y-82474006D01*
X85525878Y-82476130D01*
X85511420Y-82476840D01*
X85166420Y-82476840D01*
X85151962Y-82476130D01*
X85137644Y-82474006D01*
X85123603Y-82470489D01*
X85109974Y-82465612D01*
X85096889Y-82459423D01*
X85084473Y-82451982D01*
X85072847Y-82443359D01*
X85062122Y-82433638D01*
X85052401Y-82422913D01*
X85043778Y-82411287D01*
X85036337Y-82398871D01*
X85030148Y-82385786D01*
X85025271Y-82372157D01*
X85021754Y-82358116D01*
X85019630Y-82343798D01*
X85018920Y-82329340D01*
X85018920Y-82034340D01*
X85019630Y-82019882D01*
X85021754Y-82005564D01*
X85025271Y-81991523D01*
X85030148Y-81977894D01*
X85036337Y-81964809D01*
X85043778Y-81952393D01*
X85052401Y-81940767D01*
X85062122Y-81930042D01*
X85072847Y-81920321D01*
X85084473Y-81911698D01*
X85096889Y-81904257D01*
X85109974Y-81898068D01*
X85123603Y-81893191D01*
X85137644Y-81889674D01*
X85151962Y-81887550D01*
X85166420Y-81886840D01*
X85511420Y-81886840D01*
X85525878Y-81887550D01*
X85525878Y-81887550D01*
G37*
D12*
X85338920Y-82181840D03*
D10*
G36*
X85525878Y-82857550D02*
G01*
X85540196Y-82859674D01*
X85554237Y-82863191D01*
X85567866Y-82868068D01*
X85580951Y-82874257D01*
X85593367Y-82881698D01*
X85604993Y-82890321D01*
X85615718Y-82900042D01*
X85625439Y-82910767D01*
X85634062Y-82922393D01*
X85641503Y-82934809D01*
X85647692Y-82947894D01*
X85652569Y-82961523D01*
X85656086Y-82975564D01*
X85658210Y-82989882D01*
X85658920Y-83004340D01*
X85658920Y-83299340D01*
X85658210Y-83313798D01*
X85656086Y-83328116D01*
X85652569Y-83342157D01*
X85647692Y-83355786D01*
X85641503Y-83368871D01*
X85634062Y-83381287D01*
X85625439Y-83392913D01*
X85615718Y-83403638D01*
X85604993Y-83413359D01*
X85593367Y-83421982D01*
X85580951Y-83429423D01*
X85567866Y-83435612D01*
X85554237Y-83440489D01*
X85540196Y-83444006D01*
X85525878Y-83446130D01*
X85511420Y-83446840D01*
X85166420Y-83446840D01*
X85151962Y-83446130D01*
X85137644Y-83444006D01*
X85123603Y-83440489D01*
X85109974Y-83435612D01*
X85096889Y-83429423D01*
X85084473Y-83421982D01*
X85072847Y-83413359D01*
X85062122Y-83403638D01*
X85052401Y-83392913D01*
X85043778Y-83381287D01*
X85036337Y-83368871D01*
X85030148Y-83355786D01*
X85025271Y-83342157D01*
X85021754Y-83328116D01*
X85019630Y-83313798D01*
X85018920Y-83299340D01*
X85018920Y-83004340D01*
X85019630Y-82989882D01*
X85021754Y-82975564D01*
X85025271Y-82961523D01*
X85030148Y-82947894D01*
X85036337Y-82934809D01*
X85043778Y-82922393D01*
X85052401Y-82910767D01*
X85062122Y-82900042D01*
X85072847Y-82890321D01*
X85084473Y-82881698D01*
X85096889Y-82874257D01*
X85109974Y-82868068D01*
X85123603Y-82863191D01*
X85137644Y-82859674D01*
X85151962Y-82857550D01*
X85166420Y-82856840D01*
X85511420Y-82856840D01*
X85525878Y-82857550D01*
X85525878Y-82857550D01*
G37*
D12*
X85338920Y-83151840D03*
D10*
G36*
X86526638Y-82100630D02*
G01*
X86540956Y-82102754D01*
X86554997Y-82106271D01*
X86568626Y-82111148D01*
X86581711Y-82117337D01*
X86594127Y-82124778D01*
X86605753Y-82133401D01*
X86616478Y-82143122D01*
X86626199Y-82153847D01*
X86634822Y-82165473D01*
X86642263Y-82177889D01*
X86648452Y-82190974D01*
X86653329Y-82204603D01*
X86656846Y-82218644D01*
X86658970Y-82232962D01*
X86659680Y-82247420D01*
X86659680Y-82542420D01*
X86658970Y-82556878D01*
X86656846Y-82571196D01*
X86653329Y-82585237D01*
X86648452Y-82598866D01*
X86642263Y-82611951D01*
X86634822Y-82624367D01*
X86626199Y-82635993D01*
X86616478Y-82646718D01*
X86605753Y-82656439D01*
X86594127Y-82665062D01*
X86581711Y-82672503D01*
X86568626Y-82678692D01*
X86554997Y-82683569D01*
X86540956Y-82687086D01*
X86526638Y-82689210D01*
X86512180Y-82689920D01*
X86167180Y-82689920D01*
X86152722Y-82689210D01*
X86138404Y-82687086D01*
X86124363Y-82683569D01*
X86110734Y-82678692D01*
X86097649Y-82672503D01*
X86085233Y-82665062D01*
X86073607Y-82656439D01*
X86062882Y-82646718D01*
X86053161Y-82635993D01*
X86044538Y-82624367D01*
X86037097Y-82611951D01*
X86030908Y-82598866D01*
X86026031Y-82585237D01*
X86022514Y-82571196D01*
X86020390Y-82556878D01*
X86019680Y-82542420D01*
X86019680Y-82247420D01*
X86020390Y-82232962D01*
X86022514Y-82218644D01*
X86026031Y-82204603D01*
X86030908Y-82190974D01*
X86037097Y-82177889D01*
X86044538Y-82165473D01*
X86053161Y-82153847D01*
X86062882Y-82143122D01*
X86073607Y-82133401D01*
X86085233Y-82124778D01*
X86097649Y-82117337D01*
X86110734Y-82111148D01*
X86124363Y-82106271D01*
X86138404Y-82102754D01*
X86152722Y-82100630D01*
X86167180Y-82099920D01*
X86512180Y-82099920D01*
X86526638Y-82100630D01*
X86526638Y-82100630D01*
G37*
D12*
X86339680Y-82394920D03*
D10*
G36*
X86526638Y-81130630D02*
G01*
X86540956Y-81132754D01*
X86554997Y-81136271D01*
X86568626Y-81141148D01*
X86581711Y-81147337D01*
X86594127Y-81154778D01*
X86605753Y-81163401D01*
X86616478Y-81173122D01*
X86626199Y-81183847D01*
X86634822Y-81195473D01*
X86642263Y-81207889D01*
X86648452Y-81220974D01*
X86653329Y-81234603D01*
X86656846Y-81248644D01*
X86658970Y-81262962D01*
X86659680Y-81277420D01*
X86659680Y-81572420D01*
X86658970Y-81586878D01*
X86656846Y-81601196D01*
X86653329Y-81615237D01*
X86648452Y-81628866D01*
X86642263Y-81641951D01*
X86634822Y-81654367D01*
X86626199Y-81665993D01*
X86616478Y-81676718D01*
X86605753Y-81686439D01*
X86594127Y-81695062D01*
X86581711Y-81702503D01*
X86568626Y-81708692D01*
X86554997Y-81713569D01*
X86540956Y-81717086D01*
X86526638Y-81719210D01*
X86512180Y-81719920D01*
X86167180Y-81719920D01*
X86152722Y-81719210D01*
X86138404Y-81717086D01*
X86124363Y-81713569D01*
X86110734Y-81708692D01*
X86097649Y-81702503D01*
X86085233Y-81695062D01*
X86073607Y-81686439D01*
X86062882Y-81676718D01*
X86053161Y-81665993D01*
X86044538Y-81654367D01*
X86037097Y-81641951D01*
X86030908Y-81628866D01*
X86026031Y-81615237D01*
X86022514Y-81601196D01*
X86020390Y-81586878D01*
X86019680Y-81572420D01*
X86019680Y-81277420D01*
X86020390Y-81262962D01*
X86022514Y-81248644D01*
X86026031Y-81234603D01*
X86030908Y-81220974D01*
X86037097Y-81207889D01*
X86044538Y-81195473D01*
X86053161Y-81183847D01*
X86062882Y-81173122D01*
X86073607Y-81163401D01*
X86085233Y-81154778D01*
X86097649Y-81147337D01*
X86110734Y-81141148D01*
X86124363Y-81136271D01*
X86138404Y-81132754D01*
X86152722Y-81130630D01*
X86167180Y-81129920D01*
X86512180Y-81129920D01*
X86526638Y-81130630D01*
X86526638Y-81130630D01*
G37*
D12*
X86339680Y-81424920D03*
D10*
G36*
X86648558Y-77795610D02*
G01*
X86662876Y-77797734D01*
X86676917Y-77801251D01*
X86690546Y-77806128D01*
X86703631Y-77812317D01*
X86716047Y-77819758D01*
X86727673Y-77828381D01*
X86738398Y-77838102D01*
X86748119Y-77848827D01*
X86756742Y-77860453D01*
X86764183Y-77872869D01*
X86770372Y-77885954D01*
X86775249Y-77899583D01*
X86778766Y-77913624D01*
X86780890Y-77927942D01*
X86781600Y-77942400D01*
X86781600Y-78237400D01*
X86780890Y-78251858D01*
X86778766Y-78266176D01*
X86775249Y-78280217D01*
X86770372Y-78293846D01*
X86764183Y-78306931D01*
X86756742Y-78319347D01*
X86748119Y-78330973D01*
X86738398Y-78341698D01*
X86727673Y-78351419D01*
X86716047Y-78360042D01*
X86703631Y-78367483D01*
X86690546Y-78373672D01*
X86676917Y-78378549D01*
X86662876Y-78382066D01*
X86648558Y-78384190D01*
X86634100Y-78384900D01*
X86289100Y-78384900D01*
X86274642Y-78384190D01*
X86260324Y-78382066D01*
X86246283Y-78378549D01*
X86232654Y-78373672D01*
X86219569Y-78367483D01*
X86207153Y-78360042D01*
X86195527Y-78351419D01*
X86184802Y-78341698D01*
X86175081Y-78330973D01*
X86166458Y-78319347D01*
X86159017Y-78306931D01*
X86152828Y-78293846D01*
X86147951Y-78280217D01*
X86144434Y-78266176D01*
X86142310Y-78251858D01*
X86141600Y-78237400D01*
X86141600Y-77942400D01*
X86142310Y-77927942D01*
X86144434Y-77913624D01*
X86147951Y-77899583D01*
X86152828Y-77885954D01*
X86159017Y-77872869D01*
X86166458Y-77860453D01*
X86175081Y-77848827D01*
X86184802Y-77838102D01*
X86195527Y-77828381D01*
X86207153Y-77819758D01*
X86219569Y-77812317D01*
X86232654Y-77806128D01*
X86246283Y-77801251D01*
X86260324Y-77797734D01*
X86274642Y-77795610D01*
X86289100Y-77794900D01*
X86634100Y-77794900D01*
X86648558Y-77795610D01*
X86648558Y-77795610D01*
G37*
D12*
X86461600Y-78089900D03*
D10*
G36*
X86648558Y-78765610D02*
G01*
X86662876Y-78767734D01*
X86676917Y-78771251D01*
X86690546Y-78776128D01*
X86703631Y-78782317D01*
X86716047Y-78789758D01*
X86727673Y-78798381D01*
X86738398Y-78808102D01*
X86748119Y-78818827D01*
X86756742Y-78830453D01*
X86764183Y-78842869D01*
X86770372Y-78855954D01*
X86775249Y-78869583D01*
X86778766Y-78883624D01*
X86780890Y-78897942D01*
X86781600Y-78912400D01*
X86781600Y-79207400D01*
X86780890Y-79221858D01*
X86778766Y-79236176D01*
X86775249Y-79250217D01*
X86770372Y-79263846D01*
X86764183Y-79276931D01*
X86756742Y-79289347D01*
X86748119Y-79300973D01*
X86738398Y-79311698D01*
X86727673Y-79321419D01*
X86716047Y-79330042D01*
X86703631Y-79337483D01*
X86690546Y-79343672D01*
X86676917Y-79348549D01*
X86662876Y-79352066D01*
X86648558Y-79354190D01*
X86634100Y-79354900D01*
X86289100Y-79354900D01*
X86274642Y-79354190D01*
X86260324Y-79352066D01*
X86246283Y-79348549D01*
X86232654Y-79343672D01*
X86219569Y-79337483D01*
X86207153Y-79330042D01*
X86195527Y-79321419D01*
X86184802Y-79311698D01*
X86175081Y-79300973D01*
X86166458Y-79289347D01*
X86159017Y-79276931D01*
X86152828Y-79263846D01*
X86147951Y-79250217D01*
X86144434Y-79236176D01*
X86142310Y-79221858D01*
X86141600Y-79207400D01*
X86141600Y-78912400D01*
X86142310Y-78897942D01*
X86144434Y-78883624D01*
X86147951Y-78869583D01*
X86152828Y-78855954D01*
X86159017Y-78842869D01*
X86166458Y-78830453D01*
X86175081Y-78818827D01*
X86184802Y-78808102D01*
X86195527Y-78798381D01*
X86207153Y-78789758D01*
X86219569Y-78782317D01*
X86232654Y-78776128D01*
X86246283Y-78771251D01*
X86260324Y-78767734D01*
X86274642Y-78765610D01*
X86289100Y-78764900D01*
X86634100Y-78764900D01*
X86648558Y-78765610D01*
X86648558Y-78765610D01*
G37*
D12*
X86461600Y-79059900D03*
D10*
G36*
X87118458Y-76759010D02*
G01*
X87132776Y-76761134D01*
X87146817Y-76764651D01*
X87160446Y-76769528D01*
X87173531Y-76775717D01*
X87185947Y-76783158D01*
X87197573Y-76791781D01*
X87208298Y-76801502D01*
X87218019Y-76812227D01*
X87226642Y-76823853D01*
X87234083Y-76836269D01*
X87240272Y-76849354D01*
X87245149Y-76862983D01*
X87248666Y-76877024D01*
X87250790Y-76891342D01*
X87251500Y-76905800D01*
X87251500Y-77200800D01*
X87250790Y-77215258D01*
X87248666Y-77229576D01*
X87245149Y-77243617D01*
X87240272Y-77257246D01*
X87234083Y-77270331D01*
X87226642Y-77282747D01*
X87218019Y-77294373D01*
X87208298Y-77305098D01*
X87197573Y-77314819D01*
X87185947Y-77323442D01*
X87173531Y-77330883D01*
X87160446Y-77337072D01*
X87146817Y-77341949D01*
X87132776Y-77345466D01*
X87118458Y-77347590D01*
X87104000Y-77348300D01*
X86759000Y-77348300D01*
X86744542Y-77347590D01*
X86730224Y-77345466D01*
X86716183Y-77341949D01*
X86702554Y-77337072D01*
X86689469Y-77330883D01*
X86677053Y-77323442D01*
X86665427Y-77314819D01*
X86654702Y-77305098D01*
X86644981Y-77294373D01*
X86636358Y-77282747D01*
X86628917Y-77270331D01*
X86622728Y-77257246D01*
X86617851Y-77243617D01*
X86614334Y-77229576D01*
X86612210Y-77215258D01*
X86611500Y-77200800D01*
X86611500Y-76905800D01*
X86612210Y-76891342D01*
X86614334Y-76877024D01*
X86617851Y-76862983D01*
X86622728Y-76849354D01*
X86628917Y-76836269D01*
X86636358Y-76823853D01*
X86644981Y-76812227D01*
X86654702Y-76801502D01*
X86665427Y-76791781D01*
X86677053Y-76783158D01*
X86689469Y-76775717D01*
X86702554Y-76769528D01*
X86716183Y-76764651D01*
X86730224Y-76761134D01*
X86744542Y-76759010D01*
X86759000Y-76758300D01*
X87104000Y-76758300D01*
X87118458Y-76759010D01*
X87118458Y-76759010D01*
G37*
D12*
X86931500Y-77053300D03*
D10*
G36*
X87118458Y-75789010D02*
G01*
X87132776Y-75791134D01*
X87146817Y-75794651D01*
X87160446Y-75799528D01*
X87173531Y-75805717D01*
X87185947Y-75813158D01*
X87197573Y-75821781D01*
X87208298Y-75831502D01*
X87218019Y-75842227D01*
X87226642Y-75853853D01*
X87234083Y-75866269D01*
X87240272Y-75879354D01*
X87245149Y-75892983D01*
X87248666Y-75907024D01*
X87250790Y-75921342D01*
X87251500Y-75935800D01*
X87251500Y-76230800D01*
X87250790Y-76245258D01*
X87248666Y-76259576D01*
X87245149Y-76273617D01*
X87240272Y-76287246D01*
X87234083Y-76300331D01*
X87226642Y-76312747D01*
X87218019Y-76324373D01*
X87208298Y-76335098D01*
X87197573Y-76344819D01*
X87185947Y-76353442D01*
X87173531Y-76360883D01*
X87160446Y-76367072D01*
X87146817Y-76371949D01*
X87132776Y-76375466D01*
X87118458Y-76377590D01*
X87104000Y-76378300D01*
X86759000Y-76378300D01*
X86744542Y-76377590D01*
X86730224Y-76375466D01*
X86716183Y-76371949D01*
X86702554Y-76367072D01*
X86689469Y-76360883D01*
X86677053Y-76353442D01*
X86665427Y-76344819D01*
X86654702Y-76335098D01*
X86644981Y-76324373D01*
X86636358Y-76312747D01*
X86628917Y-76300331D01*
X86622728Y-76287246D01*
X86617851Y-76273617D01*
X86614334Y-76259576D01*
X86612210Y-76245258D01*
X86611500Y-76230800D01*
X86611500Y-75935800D01*
X86612210Y-75921342D01*
X86614334Y-75907024D01*
X86617851Y-75892983D01*
X86622728Y-75879354D01*
X86628917Y-75866269D01*
X86636358Y-75853853D01*
X86644981Y-75842227D01*
X86654702Y-75831502D01*
X86665427Y-75821781D01*
X86677053Y-75813158D01*
X86689469Y-75805717D01*
X86702554Y-75799528D01*
X86716183Y-75794651D01*
X86730224Y-75791134D01*
X86744542Y-75789010D01*
X86759000Y-75788300D01*
X87104000Y-75788300D01*
X87118458Y-75789010D01*
X87118458Y-75789010D01*
G37*
D12*
X86931500Y-76083300D03*
D10*
G36*
X87664558Y-73822910D02*
G01*
X87678876Y-73825034D01*
X87692917Y-73828551D01*
X87706546Y-73833428D01*
X87719631Y-73839617D01*
X87732047Y-73847058D01*
X87743673Y-73855681D01*
X87754398Y-73865402D01*
X87764119Y-73876127D01*
X87772742Y-73887753D01*
X87780183Y-73900169D01*
X87786372Y-73913254D01*
X87791249Y-73926883D01*
X87794766Y-73940924D01*
X87796890Y-73955242D01*
X87797600Y-73969700D01*
X87797600Y-74264700D01*
X87796890Y-74279158D01*
X87794766Y-74293476D01*
X87791249Y-74307517D01*
X87786372Y-74321146D01*
X87780183Y-74334231D01*
X87772742Y-74346647D01*
X87764119Y-74358273D01*
X87754398Y-74368998D01*
X87743673Y-74378719D01*
X87732047Y-74387342D01*
X87719631Y-74394783D01*
X87706546Y-74400972D01*
X87692917Y-74405849D01*
X87678876Y-74409366D01*
X87664558Y-74411490D01*
X87650100Y-74412200D01*
X87305100Y-74412200D01*
X87290642Y-74411490D01*
X87276324Y-74409366D01*
X87262283Y-74405849D01*
X87248654Y-74400972D01*
X87235569Y-74394783D01*
X87223153Y-74387342D01*
X87211527Y-74378719D01*
X87200802Y-74368998D01*
X87191081Y-74358273D01*
X87182458Y-74346647D01*
X87175017Y-74334231D01*
X87168828Y-74321146D01*
X87163951Y-74307517D01*
X87160434Y-74293476D01*
X87158310Y-74279158D01*
X87157600Y-74264700D01*
X87157600Y-73969700D01*
X87158310Y-73955242D01*
X87160434Y-73940924D01*
X87163951Y-73926883D01*
X87168828Y-73913254D01*
X87175017Y-73900169D01*
X87182458Y-73887753D01*
X87191081Y-73876127D01*
X87200802Y-73865402D01*
X87211527Y-73855681D01*
X87223153Y-73847058D01*
X87235569Y-73839617D01*
X87248654Y-73833428D01*
X87262283Y-73828551D01*
X87276324Y-73825034D01*
X87290642Y-73822910D01*
X87305100Y-73822200D01*
X87650100Y-73822200D01*
X87664558Y-73822910D01*
X87664558Y-73822910D01*
G37*
D12*
X87477600Y-74117200D03*
D10*
G36*
X87664558Y-74792910D02*
G01*
X87678876Y-74795034D01*
X87692917Y-74798551D01*
X87706546Y-74803428D01*
X87719631Y-74809617D01*
X87732047Y-74817058D01*
X87743673Y-74825681D01*
X87754398Y-74835402D01*
X87764119Y-74846127D01*
X87772742Y-74857753D01*
X87780183Y-74870169D01*
X87786372Y-74883254D01*
X87791249Y-74896883D01*
X87794766Y-74910924D01*
X87796890Y-74925242D01*
X87797600Y-74939700D01*
X87797600Y-75234700D01*
X87796890Y-75249158D01*
X87794766Y-75263476D01*
X87791249Y-75277517D01*
X87786372Y-75291146D01*
X87780183Y-75304231D01*
X87772742Y-75316647D01*
X87764119Y-75328273D01*
X87754398Y-75338998D01*
X87743673Y-75348719D01*
X87732047Y-75357342D01*
X87719631Y-75364783D01*
X87706546Y-75370972D01*
X87692917Y-75375849D01*
X87678876Y-75379366D01*
X87664558Y-75381490D01*
X87650100Y-75382200D01*
X87305100Y-75382200D01*
X87290642Y-75381490D01*
X87276324Y-75379366D01*
X87262283Y-75375849D01*
X87248654Y-75370972D01*
X87235569Y-75364783D01*
X87223153Y-75357342D01*
X87211527Y-75348719D01*
X87200802Y-75338998D01*
X87191081Y-75328273D01*
X87182458Y-75316647D01*
X87175017Y-75304231D01*
X87168828Y-75291146D01*
X87163951Y-75277517D01*
X87160434Y-75263476D01*
X87158310Y-75249158D01*
X87157600Y-75234700D01*
X87157600Y-74939700D01*
X87158310Y-74925242D01*
X87160434Y-74910924D01*
X87163951Y-74896883D01*
X87168828Y-74883254D01*
X87175017Y-74870169D01*
X87182458Y-74857753D01*
X87191081Y-74846127D01*
X87200802Y-74835402D01*
X87211527Y-74825681D01*
X87223153Y-74817058D01*
X87235569Y-74809617D01*
X87248654Y-74803428D01*
X87262283Y-74798551D01*
X87276324Y-74795034D01*
X87290642Y-74792910D01*
X87305100Y-74792200D01*
X87650100Y-74792200D01*
X87664558Y-74792910D01*
X87664558Y-74792910D01*
G37*
D12*
X87477600Y-75087200D03*
D10*
G36*
X104301558Y-74777810D02*
G01*
X104315876Y-74779934D01*
X104329917Y-74783451D01*
X104343546Y-74788328D01*
X104356631Y-74794517D01*
X104369047Y-74801958D01*
X104380673Y-74810581D01*
X104391398Y-74820302D01*
X104401119Y-74831027D01*
X104409742Y-74842653D01*
X104417183Y-74855069D01*
X104423372Y-74868154D01*
X104428249Y-74881783D01*
X104431766Y-74895824D01*
X104433890Y-74910142D01*
X104434600Y-74924600D01*
X104434600Y-75219600D01*
X104433890Y-75234058D01*
X104431766Y-75248376D01*
X104428249Y-75262417D01*
X104423372Y-75276046D01*
X104417183Y-75289131D01*
X104409742Y-75301547D01*
X104401119Y-75313173D01*
X104391398Y-75323898D01*
X104380673Y-75333619D01*
X104369047Y-75342242D01*
X104356631Y-75349683D01*
X104343546Y-75355872D01*
X104329917Y-75360749D01*
X104315876Y-75364266D01*
X104301558Y-75366390D01*
X104287100Y-75367100D01*
X103942100Y-75367100D01*
X103927642Y-75366390D01*
X103913324Y-75364266D01*
X103899283Y-75360749D01*
X103885654Y-75355872D01*
X103872569Y-75349683D01*
X103860153Y-75342242D01*
X103848527Y-75333619D01*
X103837802Y-75323898D01*
X103828081Y-75313173D01*
X103819458Y-75301547D01*
X103812017Y-75289131D01*
X103805828Y-75276046D01*
X103800951Y-75262417D01*
X103797434Y-75248376D01*
X103795310Y-75234058D01*
X103794600Y-75219600D01*
X103794600Y-74924600D01*
X103795310Y-74910142D01*
X103797434Y-74895824D01*
X103800951Y-74881783D01*
X103805828Y-74868154D01*
X103812017Y-74855069D01*
X103819458Y-74842653D01*
X103828081Y-74831027D01*
X103837802Y-74820302D01*
X103848527Y-74810581D01*
X103860153Y-74801958D01*
X103872569Y-74794517D01*
X103885654Y-74788328D01*
X103899283Y-74783451D01*
X103913324Y-74779934D01*
X103927642Y-74777810D01*
X103942100Y-74777100D01*
X104287100Y-74777100D01*
X104301558Y-74777810D01*
X104301558Y-74777810D01*
G37*
D12*
X104114600Y-75072100D03*
D10*
G36*
X104301558Y-73807810D02*
G01*
X104315876Y-73809934D01*
X104329917Y-73813451D01*
X104343546Y-73818328D01*
X104356631Y-73824517D01*
X104369047Y-73831958D01*
X104380673Y-73840581D01*
X104391398Y-73850302D01*
X104401119Y-73861027D01*
X104409742Y-73872653D01*
X104417183Y-73885069D01*
X104423372Y-73898154D01*
X104428249Y-73911783D01*
X104431766Y-73925824D01*
X104433890Y-73940142D01*
X104434600Y-73954600D01*
X104434600Y-74249600D01*
X104433890Y-74264058D01*
X104431766Y-74278376D01*
X104428249Y-74292417D01*
X104423372Y-74306046D01*
X104417183Y-74319131D01*
X104409742Y-74331547D01*
X104401119Y-74343173D01*
X104391398Y-74353898D01*
X104380673Y-74363619D01*
X104369047Y-74372242D01*
X104356631Y-74379683D01*
X104343546Y-74385872D01*
X104329917Y-74390749D01*
X104315876Y-74394266D01*
X104301558Y-74396390D01*
X104287100Y-74397100D01*
X103942100Y-74397100D01*
X103927642Y-74396390D01*
X103913324Y-74394266D01*
X103899283Y-74390749D01*
X103885654Y-74385872D01*
X103872569Y-74379683D01*
X103860153Y-74372242D01*
X103848527Y-74363619D01*
X103837802Y-74353898D01*
X103828081Y-74343173D01*
X103819458Y-74331547D01*
X103812017Y-74319131D01*
X103805828Y-74306046D01*
X103800951Y-74292417D01*
X103797434Y-74278376D01*
X103795310Y-74264058D01*
X103794600Y-74249600D01*
X103794600Y-73954600D01*
X103795310Y-73940142D01*
X103797434Y-73925824D01*
X103800951Y-73911783D01*
X103805828Y-73898154D01*
X103812017Y-73885069D01*
X103819458Y-73872653D01*
X103828081Y-73861027D01*
X103837802Y-73850302D01*
X103848527Y-73840581D01*
X103860153Y-73831958D01*
X103872569Y-73824517D01*
X103885654Y-73818328D01*
X103899283Y-73813451D01*
X103913324Y-73809934D01*
X103927642Y-73807810D01*
X103942100Y-73807100D01*
X104287100Y-73807100D01*
X104301558Y-73807810D01*
X104301558Y-73807810D01*
G37*
D12*
X104114600Y-74102100D03*
D10*
G36*
X104669858Y-75801710D02*
G01*
X104684176Y-75803834D01*
X104698217Y-75807351D01*
X104711846Y-75812228D01*
X104724931Y-75818417D01*
X104737347Y-75825858D01*
X104748973Y-75834481D01*
X104759698Y-75844202D01*
X104769419Y-75854927D01*
X104778042Y-75866553D01*
X104785483Y-75878969D01*
X104791672Y-75892054D01*
X104796549Y-75905683D01*
X104800066Y-75919724D01*
X104802190Y-75934042D01*
X104802900Y-75948500D01*
X104802900Y-76243500D01*
X104802190Y-76257958D01*
X104800066Y-76272276D01*
X104796549Y-76286317D01*
X104791672Y-76299946D01*
X104785483Y-76313031D01*
X104778042Y-76325447D01*
X104769419Y-76337073D01*
X104759698Y-76347798D01*
X104748973Y-76357519D01*
X104737347Y-76366142D01*
X104724931Y-76373583D01*
X104711846Y-76379772D01*
X104698217Y-76384649D01*
X104684176Y-76388166D01*
X104669858Y-76390290D01*
X104655400Y-76391000D01*
X104310400Y-76391000D01*
X104295942Y-76390290D01*
X104281624Y-76388166D01*
X104267583Y-76384649D01*
X104253954Y-76379772D01*
X104240869Y-76373583D01*
X104228453Y-76366142D01*
X104216827Y-76357519D01*
X104206102Y-76347798D01*
X104196381Y-76337073D01*
X104187758Y-76325447D01*
X104180317Y-76313031D01*
X104174128Y-76299946D01*
X104169251Y-76286317D01*
X104165734Y-76272276D01*
X104163610Y-76257958D01*
X104162900Y-76243500D01*
X104162900Y-75948500D01*
X104163610Y-75934042D01*
X104165734Y-75919724D01*
X104169251Y-75905683D01*
X104174128Y-75892054D01*
X104180317Y-75878969D01*
X104187758Y-75866553D01*
X104196381Y-75854927D01*
X104206102Y-75844202D01*
X104216827Y-75834481D01*
X104228453Y-75825858D01*
X104240869Y-75818417D01*
X104253954Y-75812228D01*
X104267583Y-75807351D01*
X104281624Y-75803834D01*
X104295942Y-75801710D01*
X104310400Y-75801000D01*
X104655400Y-75801000D01*
X104669858Y-75801710D01*
X104669858Y-75801710D01*
G37*
D12*
X104482900Y-76096000D03*
D10*
G36*
X104669858Y-76771710D02*
G01*
X104684176Y-76773834D01*
X104698217Y-76777351D01*
X104711846Y-76782228D01*
X104724931Y-76788417D01*
X104737347Y-76795858D01*
X104748973Y-76804481D01*
X104759698Y-76814202D01*
X104769419Y-76824927D01*
X104778042Y-76836553D01*
X104785483Y-76848969D01*
X104791672Y-76862054D01*
X104796549Y-76875683D01*
X104800066Y-76889724D01*
X104802190Y-76904042D01*
X104802900Y-76918500D01*
X104802900Y-77213500D01*
X104802190Y-77227958D01*
X104800066Y-77242276D01*
X104796549Y-77256317D01*
X104791672Y-77269946D01*
X104785483Y-77283031D01*
X104778042Y-77295447D01*
X104769419Y-77307073D01*
X104759698Y-77317798D01*
X104748973Y-77327519D01*
X104737347Y-77336142D01*
X104724931Y-77343583D01*
X104711846Y-77349772D01*
X104698217Y-77354649D01*
X104684176Y-77358166D01*
X104669858Y-77360290D01*
X104655400Y-77361000D01*
X104310400Y-77361000D01*
X104295942Y-77360290D01*
X104281624Y-77358166D01*
X104267583Y-77354649D01*
X104253954Y-77349772D01*
X104240869Y-77343583D01*
X104228453Y-77336142D01*
X104216827Y-77327519D01*
X104206102Y-77317798D01*
X104196381Y-77307073D01*
X104187758Y-77295447D01*
X104180317Y-77283031D01*
X104174128Y-77269946D01*
X104169251Y-77256317D01*
X104165734Y-77242276D01*
X104163610Y-77227958D01*
X104162900Y-77213500D01*
X104162900Y-76918500D01*
X104163610Y-76904042D01*
X104165734Y-76889724D01*
X104169251Y-76875683D01*
X104174128Y-76862054D01*
X104180317Y-76848969D01*
X104187758Y-76836553D01*
X104196381Y-76824927D01*
X104206102Y-76814202D01*
X104216827Y-76804481D01*
X104228453Y-76795858D01*
X104240869Y-76788417D01*
X104253954Y-76782228D01*
X104267583Y-76777351D01*
X104281624Y-76773834D01*
X104295942Y-76771710D01*
X104310400Y-76771000D01*
X104655400Y-76771000D01*
X104669858Y-76771710D01*
X104669858Y-76771710D01*
G37*
D12*
X104482900Y-77066000D03*
D10*
G36*
X105038158Y-78727510D02*
G01*
X105052476Y-78729634D01*
X105066517Y-78733151D01*
X105080146Y-78738028D01*
X105093231Y-78744217D01*
X105105647Y-78751658D01*
X105117273Y-78760281D01*
X105127998Y-78770002D01*
X105137719Y-78780727D01*
X105146342Y-78792353D01*
X105153783Y-78804769D01*
X105159972Y-78817854D01*
X105164849Y-78831483D01*
X105168366Y-78845524D01*
X105170490Y-78859842D01*
X105171200Y-78874300D01*
X105171200Y-79169300D01*
X105170490Y-79183758D01*
X105168366Y-79198076D01*
X105164849Y-79212117D01*
X105159972Y-79225746D01*
X105153783Y-79238831D01*
X105146342Y-79251247D01*
X105137719Y-79262873D01*
X105127998Y-79273598D01*
X105117273Y-79283319D01*
X105105647Y-79291942D01*
X105093231Y-79299383D01*
X105080146Y-79305572D01*
X105066517Y-79310449D01*
X105052476Y-79313966D01*
X105038158Y-79316090D01*
X105023700Y-79316800D01*
X104678700Y-79316800D01*
X104664242Y-79316090D01*
X104649924Y-79313966D01*
X104635883Y-79310449D01*
X104622254Y-79305572D01*
X104609169Y-79299383D01*
X104596753Y-79291942D01*
X104585127Y-79283319D01*
X104574402Y-79273598D01*
X104564681Y-79262873D01*
X104556058Y-79251247D01*
X104548617Y-79238831D01*
X104542428Y-79225746D01*
X104537551Y-79212117D01*
X104534034Y-79198076D01*
X104531910Y-79183758D01*
X104531200Y-79169300D01*
X104531200Y-78874300D01*
X104531910Y-78859842D01*
X104534034Y-78845524D01*
X104537551Y-78831483D01*
X104542428Y-78817854D01*
X104548617Y-78804769D01*
X104556058Y-78792353D01*
X104564681Y-78780727D01*
X104574402Y-78770002D01*
X104585127Y-78760281D01*
X104596753Y-78751658D01*
X104609169Y-78744217D01*
X104622254Y-78738028D01*
X104635883Y-78733151D01*
X104649924Y-78729634D01*
X104664242Y-78727510D01*
X104678700Y-78726800D01*
X105023700Y-78726800D01*
X105038158Y-78727510D01*
X105038158Y-78727510D01*
G37*
D12*
X104851200Y-79021800D03*
D10*
G36*
X105038158Y-77757510D02*
G01*
X105052476Y-77759634D01*
X105066517Y-77763151D01*
X105080146Y-77768028D01*
X105093231Y-77774217D01*
X105105647Y-77781658D01*
X105117273Y-77790281D01*
X105127998Y-77800002D01*
X105137719Y-77810727D01*
X105146342Y-77822353D01*
X105153783Y-77834769D01*
X105159972Y-77847854D01*
X105164849Y-77861483D01*
X105168366Y-77875524D01*
X105170490Y-77889842D01*
X105171200Y-77904300D01*
X105171200Y-78199300D01*
X105170490Y-78213758D01*
X105168366Y-78228076D01*
X105164849Y-78242117D01*
X105159972Y-78255746D01*
X105153783Y-78268831D01*
X105146342Y-78281247D01*
X105137719Y-78292873D01*
X105127998Y-78303598D01*
X105117273Y-78313319D01*
X105105647Y-78321942D01*
X105093231Y-78329383D01*
X105080146Y-78335572D01*
X105066517Y-78340449D01*
X105052476Y-78343966D01*
X105038158Y-78346090D01*
X105023700Y-78346800D01*
X104678700Y-78346800D01*
X104664242Y-78346090D01*
X104649924Y-78343966D01*
X104635883Y-78340449D01*
X104622254Y-78335572D01*
X104609169Y-78329383D01*
X104596753Y-78321942D01*
X104585127Y-78313319D01*
X104574402Y-78303598D01*
X104564681Y-78292873D01*
X104556058Y-78281247D01*
X104548617Y-78268831D01*
X104542428Y-78255746D01*
X104537551Y-78242117D01*
X104534034Y-78228076D01*
X104531910Y-78213758D01*
X104531200Y-78199300D01*
X104531200Y-77904300D01*
X104531910Y-77889842D01*
X104534034Y-77875524D01*
X104537551Y-77861483D01*
X104542428Y-77847854D01*
X104548617Y-77834769D01*
X104556058Y-77822353D01*
X104564681Y-77810727D01*
X104574402Y-77800002D01*
X104585127Y-77790281D01*
X104596753Y-77781658D01*
X104609169Y-77774217D01*
X104622254Y-77768028D01*
X104635883Y-77763151D01*
X104649924Y-77759634D01*
X104664242Y-77757510D01*
X104678700Y-77756800D01*
X105023700Y-77756800D01*
X105038158Y-77757510D01*
X105038158Y-77757510D01*
G37*
D12*
X104851200Y-78051800D03*
D10*
G36*
X104873058Y-82240610D02*
G01*
X104887376Y-82242734D01*
X104901417Y-82246251D01*
X104915046Y-82251128D01*
X104928131Y-82257317D01*
X104940547Y-82264758D01*
X104952173Y-82273381D01*
X104962898Y-82283102D01*
X104972619Y-82293827D01*
X104981242Y-82305453D01*
X104988683Y-82317869D01*
X104994872Y-82330954D01*
X104999749Y-82344583D01*
X105003266Y-82358624D01*
X105005390Y-82372942D01*
X105006100Y-82387400D01*
X105006100Y-82682400D01*
X105005390Y-82696858D01*
X105003266Y-82711176D01*
X104999749Y-82725217D01*
X104994872Y-82738846D01*
X104988683Y-82751931D01*
X104981242Y-82764347D01*
X104972619Y-82775973D01*
X104962898Y-82786698D01*
X104952173Y-82796419D01*
X104940547Y-82805042D01*
X104928131Y-82812483D01*
X104915046Y-82818672D01*
X104901417Y-82823549D01*
X104887376Y-82827066D01*
X104873058Y-82829190D01*
X104858600Y-82829900D01*
X104513600Y-82829900D01*
X104499142Y-82829190D01*
X104484824Y-82827066D01*
X104470783Y-82823549D01*
X104457154Y-82818672D01*
X104444069Y-82812483D01*
X104431653Y-82805042D01*
X104420027Y-82796419D01*
X104409302Y-82786698D01*
X104399581Y-82775973D01*
X104390958Y-82764347D01*
X104383517Y-82751931D01*
X104377328Y-82738846D01*
X104372451Y-82725217D01*
X104368934Y-82711176D01*
X104366810Y-82696858D01*
X104366100Y-82682400D01*
X104366100Y-82387400D01*
X104366810Y-82372942D01*
X104368934Y-82358624D01*
X104372451Y-82344583D01*
X104377328Y-82330954D01*
X104383517Y-82317869D01*
X104390958Y-82305453D01*
X104399581Y-82293827D01*
X104409302Y-82283102D01*
X104420027Y-82273381D01*
X104431653Y-82264758D01*
X104444069Y-82257317D01*
X104457154Y-82251128D01*
X104470783Y-82246251D01*
X104484824Y-82242734D01*
X104499142Y-82240610D01*
X104513600Y-82239900D01*
X104858600Y-82239900D01*
X104873058Y-82240610D01*
X104873058Y-82240610D01*
G37*
D12*
X104686100Y-82534900D03*
D10*
G36*
X104873058Y-83210610D02*
G01*
X104887376Y-83212734D01*
X104901417Y-83216251D01*
X104915046Y-83221128D01*
X104928131Y-83227317D01*
X104940547Y-83234758D01*
X104952173Y-83243381D01*
X104962898Y-83253102D01*
X104972619Y-83263827D01*
X104981242Y-83275453D01*
X104988683Y-83287869D01*
X104994872Y-83300954D01*
X104999749Y-83314583D01*
X105003266Y-83328624D01*
X105005390Y-83342942D01*
X105006100Y-83357400D01*
X105006100Y-83652400D01*
X105005390Y-83666858D01*
X105003266Y-83681176D01*
X104999749Y-83695217D01*
X104994872Y-83708846D01*
X104988683Y-83721931D01*
X104981242Y-83734347D01*
X104972619Y-83745973D01*
X104962898Y-83756698D01*
X104952173Y-83766419D01*
X104940547Y-83775042D01*
X104928131Y-83782483D01*
X104915046Y-83788672D01*
X104901417Y-83793549D01*
X104887376Y-83797066D01*
X104873058Y-83799190D01*
X104858600Y-83799900D01*
X104513600Y-83799900D01*
X104499142Y-83799190D01*
X104484824Y-83797066D01*
X104470783Y-83793549D01*
X104457154Y-83788672D01*
X104444069Y-83782483D01*
X104431653Y-83775042D01*
X104420027Y-83766419D01*
X104409302Y-83756698D01*
X104399581Y-83745973D01*
X104390958Y-83734347D01*
X104383517Y-83721931D01*
X104377328Y-83708846D01*
X104372451Y-83695217D01*
X104368934Y-83681176D01*
X104366810Y-83666858D01*
X104366100Y-83652400D01*
X104366100Y-83357400D01*
X104366810Y-83342942D01*
X104368934Y-83328624D01*
X104372451Y-83314583D01*
X104377328Y-83300954D01*
X104383517Y-83287869D01*
X104390958Y-83275453D01*
X104399581Y-83263827D01*
X104409302Y-83253102D01*
X104420027Y-83243381D01*
X104431653Y-83234758D01*
X104444069Y-83227317D01*
X104457154Y-83221128D01*
X104470783Y-83216251D01*
X104484824Y-83212734D01*
X104499142Y-83210610D01*
X104513600Y-83209900D01*
X104858600Y-83209900D01*
X104873058Y-83210610D01*
X104873058Y-83210610D01*
G37*
D12*
X104686100Y-83504900D03*
D10*
G36*
X105889058Y-83213010D02*
G01*
X105903376Y-83215134D01*
X105917417Y-83218651D01*
X105931046Y-83223528D01*
X105944131Y-83229717D01*
X105956547Y-83237158D01*
X105968173Y-83245781D01*
X105978898Y-83255502D01*
X105988619Y-83266227D01*
X105997242Y-83277853D01*
X106004683Y-83290269D01*
X106010872Y-83303354D01*
X106015749Y-83316983D01*
X106019266Y-83331024D01*
X106021390Y-83345342D01*
X106022100Y-83359800D01*
X106022100Y-83654800D01*
X106021390Y-83669258D01*
X106019266Y-83683576D01*
X106015749Y-83697617D01*
X106010872Y-83711246D01*
X106004683Y-83724331D01*
X105997242Y-83736747D01*
X105988619Y-83748373D01*
X105978898Y-83759098D01*
X105968173Y-83768819D01*
X105956547Y-83777442D01*
X105944131Y-83784883D01*
X105931046Y-83791072D01*
X105917417Y-83795949D01*
X105903376Y-83799466D01*
X105889058Y-83801590D01*
X105874600Y-83802300D01*
X105529600Y-83802300D01*
X105515142Y-83801590D01*
X105500824Y-83799466D01*
X105486783Y-83795949D01*
X105473154Y-83791072D01*
X105460069Y-83784883D01*
X105447653Y-83777442D01*
X105436027Y-83768819D01*
X105425302Y-83759098D01*
X105415581Y-83748373D01*
X105406958Y-83736747D01*
X105399517Y-83724331D01*
X105393328Y-83711246D01*
X105388451Y-83697617D01*
X105384934Y-83683576D01*
X105382810Y-83669258D01*
X105382100Y-83654800D01*
X105382100Y-83359800D01*
X105382810Y-83345342D01*
X105384934Y-83331024D01*
X105388451Y-83316983D01*
X105393328Y-83303354D01*
X105399517Y-83290269D01*
X105406958Y-83277853D01*
X105415581Y-83266227D01*
X105425302Y-83255502D01*
X105436027Y-83245781D01*
X105447653Y-83237158D01*
X105460069Y-83229717D01*
X105473154Y-83223528D01*
X105486783Y-83218651D01*
X105500824Y-83215134D01*
X105515142Y-83213010D01*
X105529600Y-83212300D01*
X105874600Y-83212300D01*
X105889058Y-83213010D01*
X105889058Y-83213010D01*
G37*
D12*
X105702100Y-83507300D03*
D10*
G36*
X105889058Y-82243010D02*
G01*
X105903376Y-82245134D01*
X105917417Y-82248651D01*
X105931046Y-82253528D01*
X105944131Y-82259717D01*
X105956547Y-82267158D01*
X105968173Y-82275781D01*
X105978898Y-82285502D01*
X105988619Y-82296227D01*
X105997242Y-82307853D01*
X106004683Y-82320269D01*
X106010872Y-82333354D01*
X106015749Y-82346983D01*
X106019266Y-82361024D01*
X106021390Y-82375342D01*
X106022100Y-82389800D01*
X106022100Y-82684800D01*
X106021390Y-82699258D01*
X106019266Y-82713576D01*
X106015749Y-82727617D01*
X106010872Y-82741246D01*
X106004683Y-82754331D01*
X105997242Y-82766747D01*
X105988619Y-82778373D01*
X105978898Y-82789098D01*
X105968173Y-82798819D01*
X105956547Y-82807442D01*
X105944131Y-82814883D01*
X105931046Y-82821072D01*
X105917417Y-82825949D01*
X105903376Y-82829466D01*
X105889058Y-82831590D01*
X105874600Y-82832300D01*
X105529600Y-82832300D01*
X105515142Y-82831590D01*
X105500824Y-82829466D01*
X105486783Y-82825949D01*
X105473154Y-82821072D01*
X105460069Y-82814883D01*
X105447653Y-82807442D01*
X105436027Y-82798819D01*
X105425302Y-82789098D01*
X105415581Y-82778373D01*
X105406958Y-82766747D01*
X105399517Y-82754331D01*
X105393328Y-82741246D01*
X105388451Y-82727617D01*
X105384934Y-82713576D01*
X105382810Y-82699258D01*
X105382100Y-82684800D01*
X105382100Y-82389800D01*
X105382810Y-82375342D01*
X105384934Y-82361024D01*
X105388451Y-82346983D01*
X105393328Y-82333354D01*
X105399517Y-82320269D01*
X105406958Y-82307853D01*
X105415581Y-82296227D01*
X105425302Y-82285502D01*
X105436027Y-82275781D01*
X105447653Y-82267158D01*
X105460069Y-82259717D01*
X105473154Y-82253528D01*
X105486783Y-82248651D01*
X105500824Y-82245134D01*
X105515142Y-82243010D01*
X105529600Y-82242300D01*
X105874600Y-82242300D01*
X105889058Y-82243010D01*
X105889058Y-82243010D01*
G37*
D12*
X105702100Y-82537300D03*
D10*
G36*
X106905058Y-82243010D02*
G01*
X106919376Y-82245134D01*
X106933417Y-82248651D01*
X106947046Y-82253528D01*
X106960131Y-82259717D01*
X106972547Y-82267158D01*
X106984173Y-82275781D01*
X106994898Y-82285502D01*
X107004619Y-82296227D01*
X107013242Y-82307853D01*
X107020683Y-82320269D01*
X107026872Y-82333354D01*
X107031749Y-82346983D01*
X107035266Y-82361024D01*
X107037390Y-82375342D01*
X107038100Y-82389800D01*
X107038100Y-82684800D01*
X107037390Y-82699258D01*
X107035266Y-82713576D01*
X107031749Y-82727617D01*
X107026872Y-82741246D01*
X107020683Y-82754331D01*
X107013242Y-82766747D01*
X107004619Y-82778373D01*
X106994898Y-82789098D01*
X106984173Y-82798819D01*
X106972547Y-82807442D01*
X106960131Y-82814883D01*
X106947046Y-82821072D01*
X106933417Y-82825949D01*
X106919376Y-82829466D01*
X106905058Y-82831590D01*
X106890600Y-82832300D01*
X106545600Y-82832300D01*
X106531142Y-82831590D01*
X106516824Y-82829466D01*
X106502783Y-82825949D01*
X106489154Y-82821072D01*
X106476069Y-82814883D01*
X106463653Y-82807442D01*
X106452027Y-82798819D01*
X106441302Y-82789098D01*
X106431581Y-82778373D01*
X106422958Y-82766747D01*
X106415517Y-82754331D01*
X106409328Y-82741246D01*
X106404451Y-82727617D01*
X106400934Y-82713576D01*
X106398810Y-82699258D01*
X106398100Y-82684800D01*
X106398100Y-82389800D01*
X106398810Y-82375342D01*
X106400934Y-82361024D01*
X106404451Y-82346983D01*
X106409328Y-82333354D01*
X106415517Y-82320269D01*
X106422958Y-82307853D01*
X106431581Y-82296227D01*
X106441302Y-82285502D01*
X106452027Y-82275781D01*
X106463653Y-82267158D01*
X106476069Y-82259717D01*
X106489154Y-82253528D01*
X106502783Y-82248651D01*
X106516824Y-82245134D01*
X106531142Y-82243010D01*
X106545600Y-82242300D01*
X106890600Y-82242300D01*
X106905058Y-82243010D01*
X106905058Y-82243010D01*
G37*
D12*
X106718100Y-82537300D03*
D10*
G36*
X106905058Y-83213010D02*
G01*
X106919376Y-83215134D01*
X106933417Y-83218651D01*
X106947046Y-83223528D01*
X106960131Y-83229717D01*
X106972547Y-83237158D01*
X106984173Y-83245781D01*
X106994898Y-83255502D01*
X107004619Y-83266227D01*
X107013242Y-83277853D01*
X107020683Y-83290269D01*
X107026872Y-83303354D01*
X107031749Y-83316983D01*
X107035266Y-83331024D01*
X107037390Y-83345342D01*
X107038100Y-83359800D01*
X107038100Y-83654800D01*
X107037390Y-83669258D01*
X107035266Y-83683576D01*
X107031749Y-83697617D01*
X107026872Y-83711246D01*
X107020683Y-83724331D01*
X107013242Y-83736747D01*
X107004619Y-83748373D01*
X106994898Y-83759098D01*
X106984173Y-83768819D01*
X106972547Y-83777442D01*
X106960131Y-83784883D01*
X106947046Y-83791072D01*
X106933417Y-83795949D01*
X106919376Y-83799466D01*
X106905058Y-83801590D01*
X106890600Y-83802300D01*
X106545600Y-83802300D01*
X106531142Y-83801590D01*
X106516824Y-83799466D01*
X106502783Y-83795949D01*
X106489154Y-83791072D01*
X106476069Y-83784883D01*
X106463653Y-83777442D01*
X106452027Y-83768819D01*
X106441302Y-83759098D01*
X106431581Y-83748373D01*
X106422958Y-83736747D01*
X106415517Y-83724331D01*
X106409328Y-83711246D01*
X106404451Y-83697617D01*
X106400934Y-83683576D01*
X106398810Y-83669258D01*
X106398100Y-83654800D01*
X106398100Y-83359800D01*
X106398810Y-83345342D01*
X106400934Y-83331024D01*
X106404451Y-83316983D01*
X106409328Y-83303354D01*
X106415517Y-83290269D01*
X106422958Y-83277853D01*
X106431581Y-83266227D01*
X106441302Y-83255502D01*
X106452027Y-83245781D01*
X106463653Y-83237158D01*
X106476069Y-83229717D01*
X106489154Y-83223528D01*
X106502783Y-83218651D01*
X106516824Y-83215134D01*
X106531142Y-83213010D01*
X106545600Y-83212300D01*
X106890600Y-83212300D01*
X106905058Y-83213010D01*
X106905058Y-83213010D01*
G37*
D12*
X106718100Y-83507300D03*
D10*
G36*
X123275358Y-72563210D02*
G01*
X123289676Y-72565334D01*
X123303717Y-72568851D01*
X123317346Y-72573728D01*
X123330431Y-72579917D01*
X123342847Y-72587358D01*
X123354473Y-72595981D01*
X123365198Y-72605702D01*
X123374919Y-72616427D01*
X123383542Y-72628053D01*
X123390983Y-72640469D01*
X123397172Y-72653554D01*
X123402049Y-72667183D01*
X123405566Y-72681224D01*
X123407690Y-72695542D01*
X123408400Y-72710000D01*
X123408400Y-73005000D01*
X123407690Y-73019458D01*
X123405566Y-73033776D01*
X123402049Y-73047817D01*
X123397172Y-73061446D01*
X123390983Y-73074531D01*
X123383542Y-73086947D01*
X123374919Y-73098573D01*
X123365198Y-73109298D01*
X123354473Y-73119019D01*
X123342847Y-73127642D01*
X123330431Y-73135083D01*
X123317346Y-73141272D01*
X123303717Y-73146149D01*
X123289676Y-73149666D01*
X123275358Y-73151790D01*
X123260900Y-73152500D01*
X122915900Y-73152500D01*
X122901442Y-73151790D01*
X122887124Y-73149666D01*
X122873083Y-73146149D01*
X122859454Y-73141272D01*
X122846369Y-73135083D01*
X122833953Y-73127642D01*
X122822327Y-73119019D01*
X122811602Y-73109298D01*
X122801881Y-73098573D01*
X122793258Y-73086947D01*
X122785817Y-73074531D01*
X122779628Y-73061446D01*
X122774751Y-73047817D01*
X122771234Y-73033776D01*
X122769110Y-73019458D01*
X122768400Y-73005000D01*
X122768400Y-72710000D01*
X122769110Y-72695542D01*
X122771234Y-72681224D01*
X122774751Y-72667183D01*
X122779628Y-72653554D01*
X122785817Y-72640469D01*
X122793258Y-72628053D01*
X122801881Y-72616427D01*
X122811602Y-72605702D01*
X122822327Y-72595981D01*
X122833953Y-72587358D01*
X122846369Y-72579917D01*
X122859454Y-72573728D01*
X122873083Y-72568851D01*
X122887124Y-72565334D01*
X122901442Y-72563210D01*
X122915900Y-72562500D01*
X123260900Y-72562500D01*
X123275358Y-72563210D01*
X123275358Y-72563210D01*
G37*
D12*
X123088400Y-72857500D03*
D10*
G36*
X123275358Y-73533210D02*
G01*
X123289676Y-73535334D01*
X123303717Y-73538851D01*
X123317346Y-73543728D01*
X123330431Y-73549917D01*
X123342847Y-73557358D01*
X123354473Y-73565981D01*
X123365198Y-73575702D01*
X123374919Y-73586427D01*
X123383542Y-73598053D01*
X123390983Y-73610469D01*
X123397172Y-73623554D01*
X123402049Y-73637183D01*
X123405566Y-73651224D01*
X123407690Y-73665542D01*
X123408400Y-73680000D01*
X123408400Y-73975000D01*
X123407690Y-73989458D01*
X123405566Y-74003776D01*
X123402049Y-74017817D01*
X123397172Y-74031446D01*
X123390983Y-74044531D01*
X123383542Y-74056947D01*
X123374919Y-74068573D01*
X123365198Y-74079298D01*
X123354473Y-74089019D01*
X123342847Y-74097642D01*
X123330431Y-74105083D01*
X123317346Y-74111272D01*
X123303717Y-74116149D01*
X123289676Y-74119666D01*
X123275358Y-74121790D01*
X123260900Y-74122500D01*
X122915900Y-74122500D01*
X122901442Y-74121790D01*
X122887124Y-74119666D01*
X122873083Y-74116149D01*
X122859454Y-74111272D01*
X122846369Y-74105083D01*
X122833953Y-74097642D01*
X122822327Y-74089019D01*
X122811602Y-74079298D01*
X122801881Y-74068573D01*
X122793258Y-74056947D01*
X122785817Y-74044531D01*
X122779628Y-74031446D01*
X122774751Y-74017817D01*
X122771234Y-74003776D01*
X122769110Y-73989458D01*
X122768400Y-73975000D01*
X122768400Y-73680000D01*
X122769110Y-73665542D01*
X122771234Y-73651224D01*
X122774751Y-73637183D01*
X122779628Y-73623554D01*
X122785817Y-73610469D01*
X122793258Y-73598053D01*
X122801881Y-73586427D01*
X122811602Y-73575702D01*
X122822327Y-73565981D01*
X122833953Y-73557358D01*
X122846369Y-73549917D01*
X122859454Y-73543728D01*
X122873083Y-73538851D01*
X122887124Y-73535334D01*
X122901442Y-73533210D01*
X122915900Y-73532500D01*
X123260900Y-73532500D01*
X123275358Y-73533210D01*
X123275358Y-73533210D01*
G37*
D12*
X123088400Y-73827500D03*
D10*
G36*
X123859558Y-75501710D02*
G01*
X123873876Y-75503834D01*
X123887917Y-75507351D01*
X123901546Y-75512228D01*
X123914631Y-75518417D01*
X123927047Y-75525858D01*
X123938673Y-75534481D01*
X123949398Y-75544202D01*
X123959119Y-75554927D01*
X123967742Y-75566553D01*
X123975183Y-75578969D01*
X123981372Y-75592054D01*
X123986249Y-75605683D01*
X123989766Y-75619724D01*
X123991890Y-75634042D01*
X123992600Y-75648500D01*
X123992600Y-75943500D01*
X123991890Y-75957958D01*
X123989766Y-75972276D01*
X123986249Y-75986317D01*
X123981372Y-75999946D01*
X123975183Y-76013031D01*
X123967742Y-76025447D01*
X123959119Y-76037073D01*
X123949398Y-76047798D01*
X123938673Y-76057519D01*
X123927047Y-76066142D01*
X123914631Y-76073583D01*
X123901546Y-76079772D01*
X123887917Y-76084649D01*
X123873876Y-76088166D01*
X123859558Y-76090290D01*
X123845100Y-76091000D01*
X123500100Y-76091000D01*
X123485642Y-76090290D01*
X123471324Y-76088166D01*
X123457283Y-76084649D01*
X123443654Y-76079772D01*
X123430569Y-76073583D01*
X123418153Y-76066142D01*
X123406527Y-76057519D01*
X123395802Y-76047798D01*
X123386081Y-76037073D01*
X123377458Y-76025447D01*
X123370017Y-76013031D01*
X123363828Y-75999946D01*
X123358951Y-75986317D01*
X123355434Y-75972276D01*
X123353310Y-75957958D01*
X123352600Y-75943500D01*
X123352600Y-75648500D01*
X123353310Y-75634042D01*
X123355434Y-75619724D01*
X123358951Y-75605683D01*
X123363828Y-75592054D01*
X123370017Y-75578969D01*
X123377458Y-75566553D01*
X123386081Y-75554927D01*
X123395802Y-75544202D01*
X123406527Y-75534481D01*
X123418153Y-75525858D01*
X123430569Y-75518417D01*
X123443654Y-75512228D01*
X123457283Y-75507351D01*
X123471324Y-75503834D01*
X123485642Y-75501710D01*
X123500100Y-75501000D01*
X123845100Y-75501000D01*
X123859558Y-75501710D01*
X123859558Y-75501710D01*
G37*
D12*
X123672600Y-75796000D03*
D10*
G36*
X123859558Y-74531710D02*
G01*
X123873876Y-74533834D01*
X123887917Y-74537351D01*
X123901546Y-74542228D01*
X123914631Y-74548417D01*
X123927047Y-74555858D01*
X123938673Y-74564481D01*
X123949398Y-74574202D01*
X123959119Y-74584927D01*
X123967742Y-74596553D01*
X123975183Y-74608969D01*
X123981372Y-74622054D01*
X123986249Y-74635683D01*
X123989766Y-74649724D01*
X123991890Y-74664042D01*
X123992600Y-74678500D01*
X123992600Y-74973500D01*
X123991890Y-74987958D01*
X123989766Y-75002276D01*
X123986249Y-75016317D01*
X123981372Y-75029946D01*
X123975183Y-75043031D01*
X123967742Y-75055447D01*
X123959119Y-75067073D01*
X123949398Y-75077798D01*
X123938673Y-75087519D01*
X123927047Y-75096142D01*
X123914631Y-75103583D01*
X123901546Y-75109772D01*
X123887917Y-75114649D01*
X123873876Y-75118166D01*
X123859558Y-75120290D01*
X123845100Y-75121000D01*
X123500100Y-75121000D01*
X123485642Y-75120290D01*
X123471324Y-75118166D01*
X123457283Y-75114649D01*
X123443654Y-75109772D01*
X123430569Y-75103583D01*
X123418153Y-75096142D01*
X123406527Y-75087519D01*
X123395802Y-75077798D01*
X123386081Y-75067073D01*
X123377458Y-75055447D01*
X123370017Y-75043031D01*
X123363828Y-75029946D01*
X123358951Y-75016317D01*
X123355434Y-75002276D01*
X123353310Y-74987958D01*
X123352600Y-74973500D01*
X123352600Y-74678500D01*
X123353310Y-74664042D01*
X123355434Y-74649724D01*
X123358951Y-74635683D01*
X123363828Y-74622054D01*
X123370017Y-74608969D01*
X123377458Y-74596553D01*
X123386081Y-74584927D01*
X123395802Y-74574202D01*
X123406527Y-74564481D01*
X123418153Y-74555858D01*
X123430569Y-74548417D01*
X123443654Y-74542228D01*
X123457283Y-74537351D01*
X123471324Y-74533834D01*
X123485642Y-74531710D01*
X123500100Y-74531000D01*
X123845100Y-74531000D01*
X123859558Y-74531710D01*
X123859558Y-74531710D01*
G37*
D12*
X123672600Y-74826000D03*
D10*
G36*
X124304058Y-76487510D02*
G01*
X124318376Y-76489634D01*
X124332417Y-76493151D01*
X124346046Y-76498028D01*
X124359131Y-76504217D01*
X124371547Y-76511658D01*
X124383173Y-76520281D01*
X124393898Y-76530002D01*
X124403619Y-76540727D01*
X124412242Y-76552353D01*
X124419683Y-76564769D01*
X124425872Y-76577854D01*
X124430749Y-76591483D01*
X124434266Y-76605524D01*
X124436390Y-76619842D01*
X124437100Y-76634300D01*
X124437100Y-76929300D01*
X124436390Y-76943758D01*
X124434266Y-76958076D01*
X124430749Y-76972117D01*
X124425872Y-76985746D01*
X124419683Y-76998831D01*
X124412242Y-77011247D01*
X124403619Y-77022873D01*
X124393898Y-77033598D01*
X124383173Y-77043319D01*
X124371547Y-77051942D01*
X124359131Y-77059383D01*
X124346046Y-77065572D01*
X124332417Y-77070449D01*
X124318376Y-77073966D01*
X124304058Y-77076090D01*
X124289600Y-77076800D01*
X123944600Y-77076800D01*
X123930142Y-77076090D01*
X123915824Y-77073966D01*
X123901783Y-77070449D01*
X123888154Y-77065572D01*
X123875069Y-77059383D01*
X123862653Y-77051942D01*
X123851027Y-77043319D01*
X123840302Y-77033598D01*
X123830581Y-77022873D01*
X123821958Y-77011247D01*
X123814517Y-76998831D01*
X123808328Y-76985746D01*
X123803451Y-76972117D01*
X123799934Y-76958076D01*
X123797810Y-76943758D01*
X123797100Y-76929300D01*
X123797100Y-76634300D01*
X123797810Y-76619842D01*
X123799934Y-76605524D01*
X123803451Y-76591483D01*
X123808328Y-76577854D01*
X123814517Y-76564769D01*
X123821958Y-76552353D01*
X123830581Y-76540727D01*
X123840302Y-76530002D01*
X123851027Y-76520281D01*
X123862653Y-76511658D01*
X123875069Y-76504217D01*
X123888154Y-76498028D01*
X123901783Y-76493151D01*
X123915824Y-76489634D01*
X123930142Y-76487510D01*
X123944600Y-76486800D01*
X124289600Y-76486800D01*
X124304058Y-76487510D01*
X124304058Y-76487510D01*
G37*
D12*
X124117100Y-76781800D03*
D10*
G36*
X124304058Y-77457510D02*
G01*
X124318376Y-77459634D01*
X124332417Y-77463151D01*
X124346046Y-77468028D01*
X124359131Y-77474217D01*
X124371547Y-77481658D01*
X124383173Y-77490281D01*
X124393898Y-77500002D01*
X124403619Y-77510727D01*
X124412242Y-77522353D01*
X124419683Y-77534769D01*
X124425872Y-77547854D01*
X124430749Y-77561483D01*
X124434266Y-77575524D01*
X124436390Y-77589842D01*
X124437100Y-77604300D01*
X124437100Y-77899300D01*
X124436390Y-77913758D01*
X124434266Y-77928076D01*
X124430749Y-77942117D01*
X124425872Y-77955746D01*
X124419683Y-77968831D01*
X124412242Y-77981247D01*
X124403619Y-77992873D01*
X124393898Y-78003598D01*
X124383173Y-78013319D01*
X124371547Y-78021942D01*
X124359131Y-78029383D01*
X124346046Y-78035572D01*
X124332417Y-78040449D01*
X124318376Y-78043966D01*
X124304058Y-78046090D01*
X124289600Y-78046800D01*
X123944600Y-78046800D01*
X123930142Y-78046090D01*
X123915824Y-78043966D01*
X123901783Y-78040449D01*
X123888154Y-78035572D01*
X123875069Y-78029383D01*
X123862653Y-78021942D01*
X123851027Y-78013319D01*
X123840302Y-78003598D01*
X123830581Y-77992873D01*
X123821958Y-77981247D01*
X123814517Y-77968831D01*
X123808328Y-77955746D01*
X123803451Y-77942117D01*
X123799934Y-77928076D01*
X123797810Y-77913758D01*
X123797100Y-77899300D01*
X123797100Y-77604300D01*
X123797810Y-77589842D01*
X123799934Y-77575524D01*
X123803451Y-77561483D01*
X123808328Y-77547854D01*
X123814517Y-77534769D01*
X123821958Y-77522353D01*
X123830581Y-77510727D01*
X123840302Y-77500002D01*
X123851027Y-77490281D01*
X123862653Y-77481658D01*
X123875069Y-77474217D01*
X123888154Y-77468028D01*
X123901783Y-77463151D01*
X123915824Y-77459634D01*
X123930142Y-77457510D01*
X123944600Y-77456800D01*
X124289600Y-77456800D01*
X124304058Y-77457510D01*
X124304058Y-77457510D01*
G37*
D12*
X124117100Y-77751800D03*
D10*
G36*
X124392958Y-82408110D02*
G01*
X124407276Y-82410234D01*
X124421317Y-82413751D01*
X124434946Y-82418628D01*
X124448031Y-82424817D01*
X124460447Y-82432258D01*
X124472073Y-82440881D01*
X124482798Y-82450602D01*
X124492519Y-82461327D01*
X124501142Y-82472953D01*
X124508583Y-82485369D01*
X124514772Y-82498454D01*
X124519649Y-82512083D01*
X124523166Y-82526124D01*
X124525290Y-82540442D01*
X124526000Y-82554900D01*
X124526000Y-82849900D01*
X124525290Y-82864358D01*
X124523166Y-82878676D01*
X124519649Y-82892717D01*
X124514772Y-82906346D01*
X124508583Y-82919431D01*
X124501142Y-82931847D01*
X124492519Y-82943473D01*
X124482798Y-82954198D01*
X124472073Y-82963919D01*
X124460447Y-82972542D01*
X124448031Y-82979983D01*
X124434946Y-82986172D01*
X124421317Y-82991049D01*
X124407276Y-82994566D01*
X124392958Y-82996690D01*
X124378500Y-82997400D01*
X124033500Y-82997400D01*
X124019042Y-82996690D01*
X124004724Y-82994566D01*
X123990683Y-82991049D01*
X123977054Y-82986172D01*
X123963969Y-82979983D01*
X123951553Y-82972542D01*
X123939927Y-82963919D01*
X123929202Y-82954198D01*
X123919481Y-82943473D01*
X123910858Y-82931847D01*
X123903417Y-82919431D01*
X123897228Y-82906346D01*
X123892351Y-82892717D01*
X123888834Y-82878676D01*
X123886710Y-82864358D01*
X123886000Y-82849900D01*
X123886000Y-82554900D01*
X123886710Y-82540442D01*
X123888834Y-82526124D01*
X123892351Y-82512083D01*
X123897228Y-82498454D01*
X123903417Y-82485369D01*
X123910858Y-82472953D01*
X123919481Y-82461327D01*
X123929202Y-82450602D01*
X123939927Y-82440881D01*
X123951553Y-82432258D01*
X123963969Y-82424817D01*
X123977054Y-82418628D01*
X123990683Y-82413751D01*
X124004724Y-82410234D01*
X124019042Y-82408110D01*
X124033500Y-82407400D01*
X124378500Y-82407400D01*
X124392958Y-82408110D01*
X124392958Y-82408110D01*
G37*
D12*
X124206000Y-82702400D03*
D10*
G36*
X124392958Y-81438110D02*
G01*
X124407276Y-81440234D01*
X124421317Y-81443751D01*
X124434946Y-81448628D01*
X124448031Y-81454817D01*
X124460447Y-81462258D01*
X124472073Y-81470881D01*
X124482798Y-81480602D01*
X124492519Y-81491327D01*
X124501142Y-81502953D01*
X124508583Y-81515369D01*
X124514772Y-81528454D01*
X124519649Y-81542083D01*
X124523166Y-81556124D01*
X124525290Y-81570442D01*
X124526000Y-81584900D01*
X124526000Y-81879900D01*
X124525290Y-81894358D01*
X124523166Y-81908676D01*
X124519649Y-81922717D01*
X124514772Y-81936346D01*
X124508583Y-81949431D01*
X124501142Y-81961847D01*
X124492519Y-81973473D01*
X124482798Y-81984198D01*
X124472073Y-81993919D01*
X124460447Y-82002542D01*
X124448031Y-82009983D01*
X124434946Y-82016172D01*
X124421317Y-82021049D01*
X124407276Y-82024566D01*
X124392958Y-82026690D01*
X124378500Y-82027400D01*
X124033500Y-82027400D01*
X124019042Y-82026690D01*
X124004724Y-82024566D01*
X123990683Y-82021049D01*
X123977054Y-82016172D01*
X123963969Y-82009983D01*
X123951553Y-82002542D01*
X123939927Y-81993919D01*
X123929202Y-81984198D01*
X123919481Y-81973473D01*
X123910858Y-81961847D01*
X123903417Y-81949431D01*
X123897228Y-81936346D01*
X123892351Y-81922717D01*
X123888834Y-81908676D01*
X123886710Y-81894358D01*
X123886000Y-81879900D01*
X123886000Y-81584900D01*
X123886710Y-81570442D01*
X123888834Y-81556124D01*
X123892351Y-81542083D01*
X123897228Y-81528454D01*
X123903417Y-81515369D01*
X123910858Y-81502953D01*
X123919481Y-81491327D01*
X123929202Y-81480602D01*
X123939927Y-81470881D01*
X123951553Y-81462258D01*
X123963969Y-81454817D01*
X123977054Y-81448628D01*
X123990683Y-81443751D01*
X124004724Y-81440234D01*
X124019042Y-81438110D01*
X124033500Y-81437400D01*
X124378500Y-81437400D01*
X124392958Y-81438110D01*
X124392958Y-81438110D01*
G37*
D12*
X124206000Y-81732400D03*
D10*
G36*
X125485158Y-81831810D02*
G01*
X125499476Y-81833934D01*
X125513517Y-81837451D01*
X125527146Y-81842328D01*
X125540231Y-81848517D01*
X125552647Y-81855958D01*
X125564273Y-81864581D01*
X125574998Y-81874302D01*
X125584719Y-81885027D01*
X125593342Y-81896653D01*
X125600783Y-81909069D01*
X125606972Y-81922154D01*
X125611849Y-81935783D01*
X125615366Y-81949824D01*
X125617490Y-81964142D01*
X125618200Y-81978600D01*
X125618200Y-82273600D01*
X125617490Y-82288058D01*
X125615366Y-82302376D01*
X125611849Y-82316417D01*
X125606972Y-82330046D01*
X125600783Y-82343131D01*
X125593342Y-82355547D01*
X125584719Y-82367173D01*
X125574998Y-82377898D01*
X125564273Y-82387619D01*
X125552647Y-82396242D01*
X125540231Y-82403683D01*
X125527146Y-82409872D01*
X125513517Y-82414749D01*
X125499476Y-82418266D01*
X125485158Y-82420390D01*
X125470700Y-82421100D01*
X125125700Y-82421100D01*
X125111242Y-82420390D01*
X125096924Y-82418266D01*
X125082883Y-82414749D01*
X125069254Y-82409872D01*
X125056169Y-82403683D01*
X125043753Y-82396242D01*
X125032127Y-82387619D01*
X125021402Y-82377898D01*
X125011681Y-82367173D01*
X125003058Y-82355547D01*
X124995617Y-82343131D01*
X124989428Y-82330046D01*
X124984551Y-82316417D01*
X124981034Y-82302376D01*
X124978910Y-82288058D01*
X124978200Y-82273600D01*
X124978200Y-81978600D01*
X124978910Y-81964142D01*
X124981034Y-81949824D01*
X124984551Y-81935783D01*
X124989428Y-81922154D01*
X124995617Y-81909069D01*
X125003058Y-81896653D01*
X125011681Y-81885027D01*
X125021402Y-81874302D01*
X125032127Y-81864581D01*
X125043753Y-81855958D01*
X125056169Y-81848517D01*
X125069254Y-81842328D01*
X125082883Y-81837451D01*
X125096924Y-81833934D01*
X125111242Y-81831810D01*
X125125700Y-81831100D01*
X125470700Y-81831100D01*
X125485158Y-81831810D01*
X125485158Y-81831810D01*
G37*
D12*
X125298200Y-82126100D03*
D10*
G36*
X125485158Y-82801810D02*
G01*
X125499476Y-82803934D01*
X125513517Y-82807451D01*
X125527146Y-82812328D01*
X125540231Y-82818517D01*
X125552647Y-82825958D01*
X125564273Y-82834581D01*
X125574998Y-82844302D01*
X125584719Y-82855027D01*
X125593342Y-82866653D01*
X125600783Y-82879069D01*
X125606972Y-82892154D01*
X125611849Y-82905783D01*
X125615366Y-82919824D01*
X125617490Y-82934142D01*
X125618200Y-82948600D01*
X125618200Y-83243600D01*
X125617490Y-83258058D01*
X125615366Y-83272376D01*
X125611849Y-83286417D01*
X125606972Y-83300046D01*
X125600783Y-83313131D01*
X125593342Y-83325547D01*
X125584719Y-83337173D01*
X125574998Y-83347898D01*
X125564273Y-83357619D01*
X125552647Y-83366242D01*
X125540231Y-83373683D01*
X125527146Y-83379872D01*
X125513517Y-83384749D01*
X125499476Y-83388266D01*
X125485158Y-83390390D01*
X125470700Y-83391100D01*
X125125700Y-83391100D01*
X125111242Y-83390390D01*
X125096924Y-83388266D01*
X125082883Y-83384749D01*
X125069254Y-83379872D01*
X125056169Y-83373683D01*
X125043753Y-83366242D01*
X125032127Y-83357619D01*
X125021402Y-83347898D01*
X125011681Y-83337173D01*
X125003058Y-83325547D01*
X124995617Y-83313131D01*
X124989428Y-83300046D01*
X124984551Y-83286417D01*
X124981034Y-83272376D01*
X124978910Y-83258058D01*
X124978200Y-83243600D01*
X124978200Y-82948600D01*
X124978910Y-82934142D01*
X124981034Y-82919824D01*
X124984551Y-82905783D01*
X124989428Y-82892154D01*
X124995617Y-82879069D01*
X125003058Y-82866653D01*
X125011681Y-82855027D01*
X125021402Y-82844302D01*
X125032127Y-82834581D01*
X125043753Y-82825958D01*
X125056169Y-82818517D01*
X125069254Y-82812328D01*
X125082883Y-82807451D01*
X125096924Y-82803934D01*
X125111242Y-82801810D01*
X125125700Y-82801100D01*
X125470700Y-82801100D01*
X125485158Y-82801810D01*
X125485158Y-82801810D01*
G37*
D12*
X125298200Y-83096100D03*
D10*
G36*
X126564658Y-83286810D02*
G01*
X126578976Y-83288934D01*
X126593017Y-83292451D01*
X126606646Y-83297328D01*
X126619731Y-83303517D01*
X126632147Y-83310958D01*
X126643773Y-83319581D01*
X126654498Y-83329302D01*
X126664219Y-83340027D01*
X126672842Y-83351653D01*
X126680283Y-83364069D01*
X126686472Y-83377154D01*
X126691349Y-83390783D01*
X126694866Y-83404824D01*
X126696990Y-83419142D01*
X126697700Y-83433600D01*
X126697700Y-83728600D01*
X126696990Y-83743058D01*
X126694866Y-83757376D01*
X126691349Y-83771417D01*
X126686472Y-83785046D01*
X126680283Y-83798131D01*
X126672842Y-83810547D01*
X126664219Y-83822173D01*
X126654498Y-83832898D01*
X126643773Y-83842619D01*
X126632147Y-83851242D01*
X126619731Y-83858683D01*
X126606646Y-83864872D01*
X126593017Y-83869749D01*
X126578976Y-83873266D01*
X126564658Y-83875390D01*
X126550200Y-83876100D01*
X126205200Y-83876100D01*
X126190742Y-83875390D01*
X126176424Y-83873266D01*
X126162383Y-83869749D01*
X126148754Y-83864872D01*
X126135669Y-83858683D01*
X126123253Y-83851242D01*
X126111627Y-83842619D01*
X126100902Y-83832898D01*
X126091181Y-83822173D01*
X126082558Y-83810547D01*
X126075117Y-83798131D01*
X126068928Y-83785046D01*
X126064051Y-83771417D01*
X126060534Y-83757376D01*
X126058410Y-83743058D01*
X126057700Y-83728600D01*
X126057700Y-83433600D01*
X126058410Y-83419142D01*
X126060534Y-83404824D01*
X126064051Y-83390783D01*
X126068928Y-83377154D01*
X126075117Y-83364069D01*
X126082558Y-83351653D01*
X126091181Y-83340027D01*
X126100902Y-83329302D01*
X126111627Y-83319581D01*
X126123253Y-83310958D01*
X126135669Y-83303517D01*
X126148754Y-83297328D01*
X126162383Y-83292451D01*
X126176424Y-83288934D01*
X126190742Y-83286810D01*
X126205200Y-83286100D01*
X126550200Y-83286100D01*
X126564658Y-83286810D01*
X126564658Y-83286810D01*
G37*
D12*
X126377700Y-83581100D03*
D10*
G36*
X126564658Y-82316810D02*
G01*
X126578976Y-82318934D01*
X126593017Y-82322451D01*
X126606646Y-82327328D01*
X126619731Y-82333517D01*
X126632147Y-82340958D01*
X126643773Y-82349581D01*
X126654498Y-82359302D01*
X126664219Y-82370027D01*
X126672842Y-82381653D01*
X126680283Y-82394069D01*
X126686472Y-82407154D01*
X126691349Y-82420783D01*
X126694866Y-82434824D01*
X126696990Y-82449142D01*
X126697700Y-82463600D01*
X126697700Y-82758600D01*
X126696990Y-82773058D01*
X126694866Y-82787376D01*
X126691349Y-82801417D01*
X126686472Y-82815046D01*
X126680283Y-82828131D01*
X126672842Y-82840547D01*
X126664219Y-82852173D01*
X126654498Y-82862898D01*
X126643773Y-82872619D01*
X126632147Y-82881242D01*
X126619731Y-82888683D01*
X126606646Y-82894872D01*
X126593017Y-82899749D01*
X126578976Y-82903266D01*
X126564658Y-82905390D01*
X126550200Y-82906100D01*
X126205200Y-82906100D01*
X126190742Y-82905390D01*
X126176424Y-82903266D01*
X126162383Y-82899749D01*
X126148754Y-82894872D01*
X126135669Y-82888683D01*
X126123253Y-82881242D01*
X126111627Y-82872619D01*
X126100902Y-82862898D01*
X126091181Y-82852173D01*
X126082558Y-82840547D01*
X126075117Y-82828131D01*
X126068928Y-82815046D01*
X126064051Y-82801417D01*
X126060534Y-82787376D01*
X126058410Y-82773058D01*
X126057700Y-82758600D01*
X126057700Y-82463600D01*
X126058410Y-82449142D01*
X126060534Y-82434824D01*
X126064051Y-82420783D01*
X126068928Y-82407154D01*
X126075117Y-82394069D01*
X126082558Y-82381653D01*
X126091181Y-82370027D01*
X126100902Y-82359302D01*
X126111627Y-82349581D01*
X126123253Y-82340958D01*
X126135669Y-82333517D01*
X126148754Y-82327328D01*
X126162383Y-82322451D01*
X126176424Y-82318934D01*
X126190742Y-82316810D01*
X126205200Y-82316100D01*
X126550200Y-82316100D01*
X126564658Y-82316810D01*
X126564658Y-82316810D01*
G37*
D12*
X126377700Y-82611100D03*
D10*
G36*
X142439658Y-73431610D02*
G01*
X142453976Y-73433734D01*
X142468017Y-73437251D01*
X142481646Y-73442128D01*
X142494731Y-73448317D01*
X142507147Y-73455758D01*
X142518773Y-73464381D01*
X142529498Y-73474102D01*
X142539219Y-73484827D01*
X142547842Y-73496453D01*
X142555283Y-73508869D01*
X142561472Y-73521954D01*
X142566349Y-73535583D01*
X142569866Y-73549624D01*
X142571990Y-73563942D01*
X142572700Y-73578400D01*
X142572700Y-73873400D01*
X142571990Y-73887858D01*
X142569866Y-73902176D01*
X142566349Y-73916217D01*
X142561472Y-73929846D01*
X142555283Y-73942931D01*
X142547842Y-73955347D01*
X142539219Y-73966973D01*
X142529498Y-73977698D01*
X142518773Y-73987419D01*
X142507147Y-73996042D01*
X142494731Y-74003483D01*
X142481646Y-74009672D01*
X142468017Y-74014549D01*
X142453976Y-74018066D01*
X142439658Y-74020190D01*
X142425200Y-74020900D01*
X142080200Y-74020900D01*
X142065742Y-74020190D01*
X142051424Y-74018066D01*
X142037383Y-74014549D01*
X142023754Y-74009672D01*
X142010669Y-74003483D01*
X141998253Y-73996042D01*
X141986627Y-73987419D01*
X141975902Y-73977698D01*
X141966181Y-73966973D01*
X141957558Y-73955347D01*
X141950117Y-73942931D01*
X141943928Y-73929846D01*
X141939051Y-73916217D01*
X141935534Y-73902176D01*
X141933410Y-73887858D01*
X141932700Y-73873400D01*
X141932700Y-73578400D01*
X141933410Y-73563942D01*
X141935534Y-73549624D01*
X141939051Y-73535583D01*
X141943928Y-73521954D01*
X141950117Y-73508869D01*
X141957558Y-73496453D01*
X141966181Y-73484827D01*
X141975902Y-73474102D01*
X141986627Y-73464381D01*
X141998253Y-73455758D01*
X142010669Y-73448317D01*
X142023754Y-73442128D01*
X142037383Y-73437251D01*
X142051424Y-73433734D01*
X142065742Y-73431610D01*
X142080200Y-73430900D01*
X142425200Y-73430900D01*
X142439658Y-73431610D01*
X142439658Y-73431610D01*
G37*
D12*
X142252700Y-73725900D03*
D10*
G36*
X142439658Y-72461610D02*
G01*
X142453976Y-72463734D01*
X142468017Y-72467251D01*
X142481646Y-72472128D01*
X142494731Y-72478317D01*
X142507147Y-72485758D01*
X142518773Y-72494381D01*
X142529498Y-72504102D01*
X142539219Y-72514827D01*
X142547842Y-72526453D01*
X142555283Y-72538869D01*
X142561472Y-72551954D01*
X142566349Y-72565583D01*
X142569866Y-72579624D01*
X142571990Y-72593942D01*
X142572700Y-72608400D01*
X142572700Y-72903400D01*
X142571990Y-72917858D01*
X142569866Y-72932176D01*
X142566349Y-72946217D01*
X142561472Y-72959846D01*
X142555283Y-72972931D01*
X142547842Y-72985347D01*
X142539219Y-72996973D01*
X142529498Y-73007698D01*
X142518773Y-73017419D01*
X142507147Y-73026042D01*
X142494731Y-73033483D01*
X142481646Y-73039672D01*
X142468017Y-73044549D01*
X142453976Y-73048066D01*
X142439658Y-73050190D01*
X142425200Y-73050900D01*
X142080200Y-73050900D01*
X142065742Y-73050190D01*
X142051424Y-73048066D01*
X142037383Y-73044549D01*
X142023754Y-73039672D01*
X142010669Y-73033483D01*
X141998253Y-73026042D01*
X141986627Y-73017419D01*
X141975902Y-73007698D01*
X141966181Y-72996973D01*
X141957558Y-72985347D01*
X141950117Y-72972931D01*
X141943928Y-72959846D01*
X141939051Y-72946217D01*
X141935534Y-72932176D01*
X141933410Y-72917858D01*
X141932700Y-72903400D01*
X141932700Y-72608400D01*
X141933410Y-72593942D01*
X141935534Y-72579624D01*
X141939051Y-72565583D01*
X141943928Y-72551954D01*
X141950117Y-72538869D01*
X141957558Y-72526453D01*
X141966181Y-72514827D01*
X141975902Y-72504102D01*
X141986627Y-72494381D01*
X141998253Y-72485758D01*
X142010669Y-72478317D01*
X142023754Y-72472128D01*
X142037383Y-72467251D01*
X142051424Y-72463734D01*
X142065742Y-72461610D01*
X142080200Y-72460900D01*
X142425200Y-72460900D01*
X142439658Y-72461610D01*
X142439658Y-72461610D01*
G37*
D12*
X142252700Y-72755900D03*
D10*
G36*
X142820658Y-75374710D02*
G01*
X142834976Y-75376834D01*
X142849017Y-75380351D01*
X142862646Y-75385228D01*
X142875731Y-75391417D01*
X142888147Y-75398858D01*
X142899773Y-75407481D01*
X142910498Y-75417202D01*
X142920219Y-75427927D01*
X142928842Y-75439553D01*
X142936283Y-75451969D01*
X142942472Y-75465054D01*
X142947349Y-75478683D01*
X142950866Y-75492724D01*
X142952990Y-75507042D01*
X142953700Y-75521500D01*
X142953700Y-75816500D01*
X142952990Y-75830958D01*
X142950866Y-75845276D01*
X142947349Y-75859317D01*
X142942472Y-75872946D01*
X142936283Y-75886031D01*
X142928842Y-75898447D01*
X142920219Y-75910073D01*
X142910498Y-75920798D01*
X142899773Y-75930519D01*
X142888147Y-75939142D01*
X142875731Y-75946583D01*
X142862646Y-75952772D01*
X142849017Y-75957649D01*
X142834976Y-75961166D01*
X142820658Y-75963290D01*
X142806200Y-75964000D01*
X142461200Y-75964000D01*
X142446742Y-75963290D01*
X142432424Y-75961166D01*
X142418383Y-75957649D01*
X142404754Y-75952772D01*
X142391669Y-75946583D01*
X142379253Y-75939142D01*
X142367627Y-75930519D01*
X142356902Y-75920798D01*
X142347181Y-75910073D01*
X142338558Y-75898447D01*
X142331117Y-75886031D01*
X142324928Y-75872946D01*
X142320051Y-75859317D01*
X142316534Y-75845276D01*
X142314410Y-75830958D01*
X142313700Y-75816500D01*
X142313700Y-75521500D01*
X142314410Y-75507042D01*
X142316534Y-75492724D01*
X142320051Y-75478683D01*
X142324928Y-75465054D01*
X142331117Y-75451969D01*
X142338558Y-75439553D01*
X142347181Y-75427927D01*
X142356902Y-75417202D01*
X142367627Y-75407481D01*
X142379253Y-75398858D01*
X142391669Y-75391417D01*
X142404754Y-75385228D01*
X142418383Y-75380351D01*
X142432424Y-75376834D01*
X142446742Y-75374710D01*
X142461200Y-75374000D01*
X142806200Y-75374000D01*
X142820658Y-75374710D01*
X142820658Y-75374710D01*
G37*
D12*
X142633700Y-75669000D03*
D10*
G36*
X142820658Y-74404710D02*
G01*
X142834976Y-74406834D01*
X142849017Y-74410351D01*
X142862646Y-74415228D01*
X142875731Y-74421417D01*
X142888147Y-74428858D01*
X142899773Y-74437481D01*
X142910498Y-74447202D01*
X142920219Y-74457927D01*
X142928842Y-74469553D01*
X142936283Y-74481969D01*
X142942472Y-74495054D01*
X142947349Y-74508683D01*
X142950866Y-74522724D01*
X142952990Y-74537042D01*
X142953700Y-74551500D01*
X142953700Y-74846500D01*
X142952990Y-74860958D01*
X142950866Y-74875276D01*
X142947349Y-74889317D01*
X142942472Y-74902946D01*
X142936283Y-74916031D01*
X142928842Y-74928447D01*
X142920219Y-74940073D01*
X142910498Y-74950798D01*
X142899773Y-74960519D01*
X142888147Y-74969142D01*
X142875731Y-74976583D01*
X142862646Y-74982772D01*
X142849017Y-74987649D01*
X142834976Y-74991166D01*
X142820658Y-74993290D01*
X142806200Y-74994000D01*
X142461200Y-74994000D01*
X142446742Y-74993290D01*
X142432424Y-74991166D01*
X142418383Y-74987649D01*
X142404754Y-74982772D01*
X142391669Y-74976583D01*
X142379253Y-74969142D01*
X142367627Y-74960519D01*
X142356902Y-74950798D01*
X142347181Y-74940073D01*
X142338558Y-74928447D01*
X142331117Y-74916031D01*
X142324928Y-74902946D01*
X142320051Y-74889317D01*
X142316534Y-74875276D01*
X142314410Y-74860958D01*
X142313700Y-74846500D01*
X142313700Y-74551500D01*
X142314410Y-74537042D01*
X142316534Y-74522724D01*
X142320051Y-74508683D01*
X142324928Y-74495054D01*
X142331117Y-74481969D01*
X142338558Y-74469553D01*
X142347181Y-74457927D01*
X142356902Y-74447202D01*
X142367627Y-74437481D01*
X142379253Y-74428858D01*
X142391669Y-74421417D01*
X142404754Y-74415228D01*
X142418383Y-74410351D01*
X142432424Y-74406834D01*
X142446742Y-74404710D01*
X142461200Y-74404000D01*
X142806200Y-74404000D01*
X142820658Y-74404710D01*
X142820658Y-74404710D01*
G37*
D12*
X142633700Y-74699000D03*
D10*
G36*
X143214358Y-76335110D02*
G01*
X143228676Y-76337234D01*
X143242717Y-76340751D01*
X143256346Y-76345628D01*
X143269431Y-76351817D01*
X143281847Y-76359258D01*
X143293473Y-76367881D01*
X143304198Y-76377602D01*
X143313919Y-76388327D01*
X143322542Y-76399953D01*
X143329983Y-76412369D01*
X143336172Y-76425454D01*
X143341049Y-76439083D01*
X143344566Y-76453124D01*
X143346690Y-76467442D01*
X143347400Y-76481900D01*
X143347400Y-76776900D01*
X143346690Y-76791358D01*
X143344566Y-76805676D01*
X143341049Y-76819717D01*
X143336172Y-76833346D01*
X143329983Y-76846431D01*
X143322542Y-76858847D01*
X143313919Y-76870473D01*
X143304198Y-76881198D01*
X143293473Y-76890919D01*
X143281847Y-76899542D01*
X143269431Y-76906983D01*
X143256346Y-76913172D01*
X143242717Y-76918049D01*
X143228676Y-76921566D01*
X143214358Y-76923690D01*
X143199900Y-76924400D01*
X142854900Y-76924400D01*
X142840442Y-76923690D01*
X142826124Y-76921566D01*
X142812083Y-76918049D01*
X142798454Y-76913172D01*
X142785369Y-76906983D01*
X142772953Y-76899542D01*
X142761327Y-76890919D01*
X142750602Y-76881198D01*
X142740881Y-76870473D01*
X142732258Y-76858847D01*
X142724817Y-76846431D01*
X142718628Y-76833346D01*
X142713751Y-76819717D01*
X142710234Y-76805676D01*
X142708110Y-76791358D01*
X142707400Y-76776900D01*
X142707400Y-76481900D01*
X142708110Y-76467442D01*
X142710234Y-76453124D01*
X142713751Y-76439083D01*
X142718628Y-76425454D01*
X142724817Y-76412369D01*
X142732258Y-76399953D01*
X142740881Y-76388327D01*
X142750602Y-76377602D01*
X142761327Y-76367881D01*
X142772953Y-76359258D01*
X142785369Y-76351817D01*
X142798454Y-76345628D01*
X142812083Y-76340751D01*
X142826124Y-76337234D01*
X142840442Y-76335110D01*
X142854900Y-76334400D01*
X143199900Y-76334400D01*
X143214358Y-76335110D01*
X143214358Y-76335110D01*
G37*
D12*
X143027400Y-76629400D03*
D10*
G36*
X143214358Y-77305110D02*
G01*
X143228676Y-77307234D01*
X143242717Y-77310751D01*
X143256346Y-77315628D01*
X143269431Y-77321817D01*
X143281847Y-77329258D01*
X143293473Y-77337881D01*
X143304198Y-77347602D01*
X143313919Y-77358327D01*
X143322542Y-77369953D01*
X143329983Y-77382369D01*
X143336172Y-77395454D01*
X143341049Y-77409083D01*
X143344566Y-77423124D01*
X143346690Y-77437442D01*
X143347400Y-77451900D01*
X143347400Y-77746900D01*
X143346690Y-77761358D01*
X143344566Y-77775676D01*
X143341049Y-77789717D01*
X143336172Y-77803346D01*
X143329983Y-77816431D01*
X143322542Y-77828847D01*
X143313919Y-77840473D01*
X143304198Y-77851198D01*
X143293473Y-77860919D01*
X143281847Y-77869542D01*
X143269431Y-77876983D01*
X143256346Y-77883172D01*
X143242717Y-77888049D01*
X143228676Y-77891566D01*
X143214358Y-77893690D01*
X143199900Y-77894400D01*
X142854900Y-77894400D01*
X142840442Y-77893690D01*
X142826124Y-77891566D01*
X142812083Y-77888049D01*
X142798454Y-77883172D01*
X142785369Y-77876983D01*
X142772953Y-77869542D01*
X142761327Y-77860919D01*
X142750602Y-77851198D01*
X142740881Y-77840473D01*
X142732258Y-77828847D01*
X142724817Y-77816431D01*
X142718628Y-77803346D01*
X142713751Y-77789717D01*
X142710234Y-77775676D01*
X142708110Y-77761358D01*
X142707400Y-77746900D01*
X142707400Y-77451900D01*
X142708110Y-77437442D01*
X142710234Y-77423124D01*
X142713751Y-77409083D01*
X142718628Y-77395454D01*
X142724817Y-77382369D01*
X142732258Y-77369953D01*
X142740881Y-77358327D01*
X142750602Y-77347602D01*
X142761327Y-77337881D01*
X142772953Y-77329258D01*
X142785369Y-77321817D01*
X142798454Y-77315628D01*
X142812083Y-77310751D01*
X142826124Y-77307234D01*
X142840442Y-77305110D01*
X142854900Y-77304400D01*
X143199900Y-77304400D01*
X143214358Y-77305110D01*
X143214358Y-77305110D01*
G37*
D12*
X143027400Y-77599400D03*
D10*
G36*
X132901958Y-83650310D02*
G01*
X132916276Y-83652434D01*
X132930317Y-83655951D01*
X132943946Y-83660828D01*
X132957031Y-83667017D01*
X132969447Y-83674458D01*
X132981073Y-83683081D01*
X132991798Y-83692802D01*
X133001519Y-83703527D01*
X133010142Y-83715153D01*
X133017583Y-83727569D01*
X133023772Y-83740654D01*
X133028649Y-83754283D01*
X133032166Y-83768324D01*
X133034290Y-83782642D01*
X133035000Y-83797100D01*
X133035000Y-84092100D01*
X133034290Y-84106558D01*
X133032166Y-84120876D01*
X133028649Y-84134917D01*
X133023772Y-84148546D01*
X133017583Y-84161631D01*
X133010142Y-84174047D01*
X133001519Y-84185673D01*
X132991798Y-84196398D01*
X132981073Y-84206119D01*
X132969447Y-84214742D01*
X132957031Y-84222183D01*
X132943946Y-84228372D01*
X132930317Y-84233249D01*
X132916276Y-84236766D01*
X132901958Y-84238890D01*
X132887500Y-84239600D01*
X132542500Y-84239600D01*
X132528042Y-84238890D01*
X132513724Y-84236766D01*
X132499683Y-84233249D01*
X132486054Y-84228372D01*
X132472969Y-84222183D01*
X132460553Y-84214742D01*
X132448927Y-84206119D01*
X132438202Y-84196398D01*
X132428481Y-84185673D01*
X132419858Y-84174047D01*
X132412417Y-84161631D01*
X132406228Y-84148546D01*
X132401351Y-84134917D01*
X132397834Y-84120876D01*
X132395710Y-84106558D01*
X132395000Y-84092100D01*
X132395000Y-83797100D01*
X132395710Y-83782642D01*
X132397834Y-83768324D01*
X132401351Y-83754283D01*
X132406228Y-83740654D01*
X132412417Y-83727569D01*
X132419858Y-83715153D01*
X132428481Y-83703527D01*
X132438202Y-83692802D01*
X132448927Y-83683081D01*
X132460553Y-83674458D01*
X132472969Y-83667017D01*
X132486054Y-83660828D01*
X132499683Y-83655951D01*
X132513724Y-83652434D01*
X132528042Y-83650310D01*
X132542500Y-83649600D01*
X132887500Y-83649600D01*
X132901958Y-83650310D01*
X132901958Y-83650310D01*
G37*
D12*
X132715000Y-83944600D03*
D10*
G36*
X132901958Y-84620310D02*
G01*
X132916276Y-84622434D01*
X132930317Y-84625951D01*
X132943946Y-84630828D01*
X132957031Y-84637017D01*
X132969447Y-84644458D01*
X132981073Y-84653081D01*
X132991798Y-84662802D01*
X133001519Y-84673527D01*
X133010142Y-84685153D01*
X133017583Y-84697569D01*
X133023772Y-84710654D01*
X133028649Y-84724283D01*
X133032166Y-84738324D01*
X133034290Y-84752642D01*
X133035000Y-84767100D01*
X133035000Y-85062100D01*
X133034290Y-85076558D01*
X133032166Y-85090876D01*
X133028649Y-85104917D01*
X133023772Y-85118546D01*
X133017583Y-85131631D01*
X133010142Y-85144047D01*
X133001519Y-85155673D01*
X132991798Y-85166398D01*
X132981073Y-85176119D01*
X132969447Y-85184742D01*
X132957031Y-85192183D01*
X132943946Y-85198372D01*
X132930317Y-85203249D01*
X132916276Y-85206766D01*
X132901958Y-85208890D01*
X132887500Y-85209600D01*
X132542500Y-85209600D01*
X132528042Y-85208890D01*
X132513724Y-85206766D01*
X132499683Y-85203249D01*
X132486054Y-85198372D01*
X132472969Y-85192183D01*
X132460553Y-85184742D01*
X132448927Y-85176119D01*
X132438202Y-85166398D01*
X132428481Y-85155673D01*
X132419858Y-85144047D01*
X132412417Y-85131631D01*
X132406228Y-85118546D01*
X132401351Y-85104917D01*
X132397834Y-85090876D01*
X132395710Y-85076558D01*
X132395000Y-85062100D01*
X132395000Y-84767100D01*
X132395710Y-84752642D01*
X132397834Y-84738324D01*
X132401351Y-84724283D01*
X132406228Y-84710654D01*
X132412417Y-84697569D01*
X132419858Y-84685153D01*
X132428481Y-84673527D01*
X132438202Y-84662802D01*
X132448927Y-84653081D01*
X132460553Y-84644458D01*
X132472969Y-84637017D01*
X132486054Y-84630828D01*
X132499683Y-84625951D01*
X132513724Y-84622434D01*
X132528042Y-84620310D01*
X132542500Y-84619600D01*
X132887500Y-84619600D01*
X132901958Y-84620310D01*
X132901958Y-84620310D01*
G37*
D12*
X132715000Y-84914600D03*
D10*
G36*
X133943358Y-84633010D02*
G01*
X133957676Y-84635134D01*
X133971717Y-84638651D01*
X133985346Y-84643528D01*
X133998431Y-84649717D01*
X134010847Y-84657158D01*
X134022473Y-84665781D01*
X134033198Y-84675502D01*
X134042919Y-84686227D01*
X134051542Y-84697853D01*
X134058983Y-84710269D01*
X134065172Y-84723354D01*
X134070049Y-84736983D01*
X134073566Y-84751024D01*
X134075690Y-84765342D01*
X134076400Y-84779800D01*
X134076400Y-85074800D01*
X134075690Y-85089258D01*
X134073566Y-85103576D01*
X134070049Y-85117617D01*
X134065172Y-85131246D01*
X134058983Y-85144331D01*
X134051542Y-85156747D01*
X134042919Y-85168373D01*
X134033198Y-85179098D01*
X134022473Y-85188819D01*
X134010847Y-85197442D01*
X133998431Y-85204883D01*
X133985346Y-85211072D01*
X133971717Y-85215949D01*
X133957676Y-85219466D01*
X133943358Y-85221590D01*
X133928900Y-85222300D01*
X133583900Y-85222300D01*
X133569442Y-85221590D01*
X133555124Y-85219466D01*
X133541083Y-85215949D01*
X133527454Y-85211072D01*
X133514369Y-85204883D01*
X133501953Y-85197442D01*
X133490327Y-85188819D01*
X133479602Y-85179098D01*
X133469881Y-85168373D01*
X133461258Y-85156747D01*
X133453817Y-85144331D01*
X133447628Y-85131246D01*
X133442751Y-85117617D01*
X133439234Y-85103576D01*
X133437110Y-85089258D01*
X133436400Y-85074800D01*
X133436400Y-84779800D01*
X133437110Y-84765342D01*
X133439234Y-84751024D01*
X133442751Y-84736983D01*
X133447628Y-84723354D01*
X133453817Y-84710269D01*
X133461258Y-84697853D01*
X133469881Y-84686227D01*
X133479602Y-84675502D01*
X133490327Y-84665781D01*
X133501953Y-84657158D01*
X133514369Y-84649717D01*
X133527454Y-84643528D01*
X133541083Y-84638651D01*
X133555124Y-84635134D01*
X133569442Y-84633010D01*
X133583900Y-84632300D01*
X133928900Y-84632300D01*
X133943358Y-84633010D01*
X133943358Y-84633010D01*
G37*
D12*
X133756400Y-84927300D03*
D10*
G36*
X133943358Y-83663010D02*
G01*
X133957676Y-83665134D01*
X133971717Y-83668651D01*
X133985346Y-83673528D01*
X133998431Y-83679717D01*
X134010847Y-83687158D01*
X134022473Y-83695781D01*
X134033198Y-83705502D01*
X134042919Y-83716227D01*
X134051542Y-83727853D01*
X134058983Y-83740269D01*
X134065172Y-83753354D01*
X134070049Y-83766983D01*
X134073566Y-83781024D01*
X134075690Y-83795342D01*
X134076400Y-83809800D01*
X134076400Y-84104800D01*
X134075690Y-84119258D01*
X134073566Y-84133576D01*
X134070049Y-84147617D01*
X134065172Y-84161246D01*
X134058983Y-84174331D01*
X134051542Y-84186747D01*
X134042919Y-84198373D01*
X134033198Y-84209098D01*
X134022473Y-84218819D01*
X134010847Y-84227442D01*
X133998431Y-84234883D01*
X133985346Y-84241072D01*
X133971717Y-84245949D01*
X133957676Y-84249466D01*
X133943358Y-84251590D01*
X133928900Y-84252300D01*
X133583900Y-84252300D01*
X133569442Y-84251590D01*
X133555124Y-84249466D01*
X133541083Y-84245949D01*
X133527454Y-84241072D01*
X133514369Y-84234883D01*
X133501953Y-84227442D01*
X133490327Y-84218819D01*
X133479602Y-84209098D01*
X133469881Y-84198373D01*
X133461258Y-84186747D01*
X133453817Y-84174331D01*
X133447628Y-84161246D01*
X133442751Y-84147617D01*
X133439234Y-84133576D01*
X133437110Y-84119258D01*
X133436400Y-84104800D01*
X133436400Y-83809800D01*
X133437110Y-83795342D01*
X133439234Y-83781024D01*
X133442751Y-83766983D01*
X133447628Y-83753354D01*
X133453817Y-83740269D01*
X133461258Y-83727853D01*
X133469881Y-83716227D01*
X133479602Y-83705502D01*
X133490327Y-83695781D01*
X133501953Y-83687158D01*
X133514369Y-83679717D01*
X133527454Y-83673528D01*
X133541083Y-83668651D01*
X133555124Y-83665134D01*
X133569442Y-83663010D01*
X133583900Y-83662300D01*
X133928900Y-83662300D01*
X133943358Y-83663010D01*
X133943358Y-83663010D01*
G37*
D12*
X133756400Y-83957300D03*
D10*
G36*
X135022858Y-84633010D02*
G01*
X135037176Y-84635134D01*
X135051217Y-84638651D01*
X135064846Y-84643528D01*
X135077931Y-84649717D01*
X135090347Y-84657158D01*
X135101973Y-84665781D01*
X135112698Y-84675502D01*
X135122419Y-84686227D01*
X135131042Y-84697853D01*
X135138483Y-84710269D01*
X135144672Y-84723354D01*
X135149549Y-84736983D01*
X135153066Y-84751024D01*
X135155190Y-84765342D01*
X135155900Y-84779800D01*
X135155900Y-85074800D01*
X135155190Y-85089258D01*
X135153066Y-85103576D01*
X135149549Y-85117617D01*
X135144672Y-85131246D01*
X135138483Y-85144331D01*
X135131042Y-85156747D01*
X135122419Y-85168373D01*
X135112698Y-85179098D01*
X135101973Y-85188819D01*
X135090347Y-85197442D01*
X135077931Y-85204883D01*
X135064846Y-85211072D01*
X135051217Y-85215949D01*
X135037176Y-85219466D01*
X135022858Y-85221590D01*
X135008400Y-85222300D01*
X134663400Y-85222300D01*
X134648942Y-85221590D01*
X134634624Y-85219466D01*
X134620583Y-85215949D01*
X134606954Y-85211072D01*
X134593869Y-85204883D01*
X134581453Y-85197442D01*
X134569827Y-85188819D01*
X134559102Y-85179098D01*
X134549381Y-85168373D01*
X134540758Y-85156747D01*
X134533317Y-85144331D01*
X134527128Y-85131246D01*
X134522251Y-85117617D01*
X134518734Y-85103576D01*
X134516610Y-85089258D01*
X134515900Y-85074800D01*
X134515900Y-84779800D01*
X134516610Y-84765342D01*
X134518734Y-84751024D01*
X134522251Y-84736983D01*
X134527128Y-84723354D01*
X134533317Y-84710269D01*
X134540758Y-84697853D01*
X134549381Y-84686227D01*
X134559102Y-84675502D01*
X134569827Y-84665781D01*
X134581453Y-84657158D01*
X134593869Y-84649717D01*
X134606954Y-84643528D01*
X134620583Y-84638651D01*
X134634624Y-84635134D01*
X134648942Y-84633010D01*
X134663400Y-84632300D01*
X135008400Y-84632300D01*
X135022858Y-84633010D01*
X135022858Y-84633010D01*
G37*
D12*
X134835900Y-84927300D03*
D10*
G36*
X135022858Y-83663010D02*
G01*
X135037176Y-83665134D01*
X135051217Y-83668651D01*
X135064846Y-83673528D01*
X135077931Y-83679717D01*
X135090347Y-83687158D01*
X135101973Y-83695781D01*
X135112698Y-83705502D01*
X135122419Y-83716227D01*
X135131042Y-83727853D01*
X135138483Y-83740269D01*
X135144672Y-83753354D01*
X135149549Y-83766983D01*
X135153066Y-83781024D01*
X135155190Y-83795342D01*
X135155900Y-83809800D01*
X135155900Y-84104800D01*
X135155190Y-84119258D01*
X135153066Y-84133576D01*
X135149549Y-84147617D01*
X135144672Y-84161246D01*
X135138483Y-84174331D01*
X135131042Y-84186747D01*
X135122419Y-84198373D01*
X135112698Y-84209098D01*
X135101973Y-84218819D01*
X135090347Y-84227442D01*
X135077931Y-84234883D01*
X135064846Y-84241072D01*
X135051217Y-84245949D01*
X135037176Y-84249466D01*
X135022858Y-84251590D01*
X135008400Y-84252300D01*
X134663400Y-84252300D01*
X134648942Y-84251590D01*
X134634624Y-84249466D01*
X134620583Y-84245949D01*
X134606954Y-84241072D01*
X134593869Y-84234883D01*
X134581453Y-84227442D01*
X134569827Y-84218819D01*
X134559102Y-84209098D01*
X134549381Y-84198373D01*
X134540758Y-84186747D01*
X134533317Y-84174331D01*
X134527128Y-84161246D01*
X134522251Y-84147617D01*
X134518734Y-84133576D01*
X134516610Y-84119258D01*
X134515900Y-84104800D01*
X134515900Y-83809800D01*
X134516610Y-83795342D01*
X134518734Y-83781024D01*
X134522251Y-83766983D01*
X134527128Y-83753354D01*
X134533317Y-83740269D01*
X134540758Y-83727853D01*
X134549381Y-83716227D01*
X134559102Y-83705502D01*
X134569827Y-83695781D01*
X134581453Y-83687158D01*
X134593869Y-83679717D01*
X134606954Y-83673528D01*
X134620583Y-83668651D01*
X134634624Y-83665134D01*
X134648942Y-83663010D01*
X134663400Y-83662300D01*
X135008400Y-83662300D01*
X135022858Y-83663010D01*
X135022858Y-83663010D01*
G37*
D12*
X134835900Y-83957300D03*
D13*
X73139300Y-147408900D03*
D14*
X73139300Y-148678900D03*
X73139300Y-149948900D03*
X73139300Y-151218900D03*
X73139300Y-152488900D03*
D15*
X90331500Y-99009200D03*
X90331500Y-97739200D03*
X90331500Y-96469200D03*
X90331500Y-95199200D03*
X90331500Y-93929200D03*
X90331500Y-92659200D03*
X90331500Y-91389200D03*
X96231500Y-90119200D03*
X96231500Y-91389200D03*
X96231500Y-92659200D03*
X96231500Y-93929200D03*
X96231500Y-95199200D03*
X96231500Y-96469200D03*
X96231500Y-97739200D03*
X90331500Y-90119200D03*
X96231500Y-99009200D03*
X92236500Y-108165900D03*
X98136500Y-117055900D03*
X92236500Y-109435900D03*
X92236500Y-110705900D03*
X92236500Y-111975900D03*
X92236500Y-113245900D03*
X92236500Y-114515900D03*
X92236500Y-115785900D03*
X92236500Y-117055900D03*
X98136500Y-115785900D03*
X98136500Y-114515900D03*
X98136500Y-113245900D03*
X98136500Y-111975900D03*
X98136500Y-110705900D03*
X98136500Y-109435900D03*
X98136500Y-108165900D03*
D16*
X96546800Y-61348600D03*
X96546800Y-62298600D03*
X97610800Y-62298600D03*
X97610800Y-61348600D03*
X103626600Y-61378000D03*
X103626600Y-62328000D03*
X102562600Y-62328000D03*
X102562600Y-61378000D03*
X109625000Y-61361300D03*
X109625000Y-62311300D03*
X108561000Y-62311300D03*
X108561000Y-61361300D03*
X120575200Y-61374000D03*
X120575200Y-62324000D03*
X121639200Y-62324000D03*
X121639200Y-61374000D03*
X127633600Y-61374000D03*
X127633600Y-62324000D03*
X126569600Y-62324000D03*
X126569600Y-61374000D03*
X132564000Y-61348600D03*
X132564000Y-62298600D03*
X133628000Y-62298600D03*
X133628000Y-61348600D03*
X139635100Y-61374000D03*
X139635100Y-62324000D03*
X138571100Y-62324000D03*
X138571100Y-61374000D03*
X144590900Y-61348600D03*
X144590900Y-62298600D03*
X145654900Y-62298600D03*
X145654900Y-61348600D03*
D17*
X74002900Y-140944600D03*
D18*
X71462900Y-140944600D03*
X68922900Y-140944600D03*
D19*
X94742000Y-103619300D03*
X94957900Y-106133900D03*
X94500700Y-99529900D03*
X90363019Y-88709500D03*
X87693500Y-101295200D03*
X92214700Y-102654100D03*
X96202500Y-102730300D03*
X123902701Y-60742599D03*
X96509840Y-63418720D03*
X86780697Y-64545537D03*
X97610800Y-63349000D03*
X86524955Y-65308470D03*
X86106000Y-66106042D03*
X98567240Y-63352680D03*
X91948000Y-97624900D03*
X89489280Y-84785200D03*
X92049600Y-96387920D03*
X90249421Y-84731837D03*
X92303611Y-95017489D03*
X90997649Y-84587560D03*
X92283280Y-93416120D03*
X91739326Y-84412698D03*
X92842090Y-92527120D03*
X92500317Y-84373267D03*
X97368491Y-83616787D03*
X94371160Y-96296480D03*
X96936259Y-84389021D03*
X94802960Y-95199200D03*
X94932500Y-93941900D03*
X97603246Y-84757518D03*
X140030200Y-82727800D03*
X143598900Y-80848200D03*
X140576300Y-83362800D03*
X143954500Y-81711800D03*
X140881100Y-84124800D03*
X144538700Y-82321400D03*
D20*
X94703900Y-100977700D02*
X94703900Y-103581200D01*
X94703900Y-103581200D02*
X94742000Y-103619300D01*
X93878600Y-106133900D02*
X93815100Y-106197400D01*
X94957900Y-106133900D02*
X93878600Y-106133900D01*
X97624978Y-117055900D02*
X96240600Y-115671522D01*
X98136500Y-117055900D02*
X97624978Y-117055900D01*
X96240600Y-107416600D02*
X94957900Y-106133900D01*
X96240600Y-115671522D02*
X96240600Y-107416600D01*
X94500700Y-99529900D02*
X94500700Y-100774500D01*
X94500700Y-100774500D02*
X94703900Y-100977700D01*
X90331500Y-90119200D02*
X90331500Y-88741019D01*
X90331500Y-88741019D02*
X90363019Y-88709500D01*
X68922900Y-148577300D02*
X68922900Y-140944600D01*
X73139300Y-152488900D02*
X72834500Y-152488900D01*
X72834500Y-152488900D02*
X68922900Y-148577300D01*
X68364100Y-140385800D02*
X68922900Y-140944600D01*
X68364100Y-103949500D02*
X68364100Y-140385800D01*
X71018400Y-101295200D02*
X68364100Y-103949500D01*
X87693500Y-101295200D02*
X71018400Y-101295200D01*
X92236500Y-106201000D02*
X92240100Y-106197400D01*
X92236500Y-108165900D02*
X92236500Y-106201000D01*
X96278900Y-99056600D02*
X96231500Y-99009200D01*
X96278900Y-100977700D02*
X96278900Y-99056600D01*
X92240100Y-102679500D02*
X92214700Y-102654100D01*
X92240100Y-106197400D02*
X92240100Y-102679500D01*
X96278900Y-100977700D02*
X96278900Y-102653900D01*
X96278900Y-102653900D02*
X96202500Y-102730300D01*
X119842200Y-61374000D02*
X120575200Y-61374000D01*
X118932900Y-60464700D02*
X119842200Y-61374000D01*
X108561000Y-61361300D02*
X109457600Y-60464700D01*
X109457600Y-60464700D02*
X118932900Y-60464700D01*
X107828000Y-61361300D02*
X108561000Y-61361300D01*
X106931400Y-60464700D02*
X107828000Y-61361300D01*
X102562600Y-61378000D02*
X103475900Y-60464700D01*
X103475900Y-60464700D02*
X106931400Y-60464700D01*
X101829600Y-61378000D02*
X102562600Y-61378000D01*
X100903600Y-60452000D02*
X101829600Y-61378000D01*
X96546800Y-61348600D02*
X97443400Y-60452000D01*
X97443400Y-60452000D02*
X100903600Y-60452000D01*
X123471649Y-60742599D02*
X123902701Y-60742599D01*
X123168350Y-60439300D02*
X123471649Y-60742599D01*
X120575200Y-61374000D02*
X121509900Y-60439300D01*
X121509900Y-60439300D02*
X123168350Y-60439300D01*
X125673000Y-60477400D02*
X126569600Y-61374000D01*
X123902701Y-60742599D02*
X124167900Y-60477400D01*
X124167900Y-60477400D02*
X125673000Y-60477400D01*
X131831000Y-61348600D02*
X132564000Y-61348600D01*
X130959800Y-60477400D02*
X131831000Y-61348600D01*
X126569600Y-61374000D02*
X127466200Y-60477400D01*
X127466200Y-60477400D02*
X130959800Y-60477400D01*
X137838100Y-61374000D02*
X138571100Y-61374000D01*
X136903400Y-60439300D02*
X137838100Y-61374000D01*
X132564000Y-61348600D02*
X133473300Y-60439300D01*
X133473300Y-60439300D02*
X136903400Y-60439300D01*
X143857900Y-61348600D02*
X144590900Y-61348600D01*
X142974000Y-60464700D02*
X143857900Y-61348600D01*
X138571100Y-61374000D02*
X139480400Y-60464700D01*
X139480400Y-60464700D02*
X142974000Y-60464700D01*
X72694800Y-142252700D02*
X74002900Y-140944600D01*
X73139300Y-147408900D02*
X72694800Y-146964400D01*
X72694800Y-146964400D02*
X72694800Y-142252700D01*
X73939400Y-140944600D02*
X74002900Y-140944600D01*
X69710300Y-136715500D02*
X73939400Y-140944600D01*
X69710300Y-105150400D02*
X69710300Y-136715500D01*
X71330300Y-103530400D02*
X69710300Y-105150400D01*
X91338400Y-103530400D02*
X71330300Y-103530400D01*
X92214700Y-102654100D02*
X91338400Y-103530400D01*
D21*
X106718100Y-65895154D02*
X107741621Y-64871633D01*
X107741621Y-64871633D02*
X120522967Y-64871633D01*
X122295920Y-61788040D02*
X121861580Y-61353700D01*
X122295920Y-63098680D02*
X122295920Y-61788040D01*
X120522967Y-64871633D02*
X122295920Y-63098680D01*
X121861580Y-61353700D02*
X121576102Y-61353700D01*
X106718100Y-82537300D02*
X106718100Y-65895154D01*
X105702100Y-82537300D02*
X105702100Y-82142300D01*
X105905289Y-81939111D02*
X105905289Y-72110556D01*
X105928215Y-72087630D02*
X105928215Y-66182130D01*
X107594323Y-64516022D02*
X119875378Y-64516022D01*
X105928215Y-66182130D02*
X107594323Y-64516022D01*
X121639200Y-62752200D02*
X121639200Y-62324000D01*
X119875378Y-64516022D02*
X121639200Y-62752200D01*
X105905289Y-72110556D02*
X105928215Y-72087630D01*
X105702100Y-82142300D02*
X105905289Y-81939111D01*
X118310589Y-64160411D02*
X120147000Y-62324000D01*
X105572604Y-66034832D02*
X107447025Y-64160411D01*
X105549678Y-81671322D02*
X105549678Y-71963258D01*
X105549678Y-71963258D02*
X105572604Y-71940332D01*
X107447025Y-64160411D02*
X118310589Y-64160411D01*
X120147000Y-62324000D02*
X120575200Y-62324000D01*
X104686100Y-82534900D02*
X105549678Y-81671322D01*
X105572604Y-71940332D02*
X105572604Y-66034832D01*
X104114600Y-74102100D02*
X104114600Y-71953108D01*
X104505771Y-71561938D02*
X104505771Y-65534584D01*
X104114600Y-71953108D02*
X104505771Y-71561938D01*
X104505771Y-65534584D02*
X107729055Y-62311300D01*
X107729055Y-62311300D02*
X108132800Y-62311300D01*
X108132800Y-62311300D02*
X108561000Y-62311300D01*
X104861382Y-71709236D02*
X104861382Y-65740236D01*
X109625000Y-62739500D02*
X109625000Y-62311300D01*
X104861382Y-65740236D02*
X107152429Y-63449189D01*
X108915311Y-63449189D02*
X109625000Y-62739500D01*
X104817068Y-71753550D02*
X104861382Y-71709236D01*
X104817068Y-75761832D02*
X104817068Y-71753550D01*
X104482900Y-76096000D02*
X104817068Y-75761832D01*
X107152429Y-63449189D02*
X108915311Y-63449189D01*
X109118400Y-63804800D02*
X110185200Y-62738000D01*
X107299727Y-63804800D02*
X109118400Y-63804800D01*
X105216993Y-71831134D02*
X105216993Y-65887534D01*
X105216993Y-65887534D02*
X107299727Y-63804800D01*
X110185200Y-61493300D02*
X110053200Y-61361300D01*
X110185200Y-62738000D02*
X110185200Y-61493300D01*
X110053200Y-61361300D02*
X109625000Y-61361300D01*
X105185368Y-71862759D02*
X105216993Y-71831134D01*
X105185368Y-77717632D02*
X105185368Y-71862759D01*
X104851200Y-78051800D02*
X105185368Y-77717632D01*
X104150160Y-63210440D02*
X104150160Y-62842140D01*
X88397080Y-65887600D02*
X101473000Y-65887600D01*
X101473000Y-65887600D02*
X104150160Y-63210440D01*
X87007700Y-67276980D02*
X88397080Y-65887600D01*
X87007700Y-73647300D02*
X87007700Y-67276980D01*
X87477600Y-74117200D02*
X87007700Y-73647300D01*
X103882360Y-61378000D02*
X103626600Y-61378000D01*
X104150160Y-61645800D02*
X103882360Y-61378000D01*
X104150160Y-62842140D02*
X104150160Y-61645800D01*
X100942240Y-65440560D02*
X103626600Y-62756200D01*
X86931500Y-76083300D02*
X86931500Y-75688300D01*
X86931500Y-75688300D02*
X86613989Y-75370789D01*
X86613989Y-75370789D02*
X86613989Y-67111902D01*
X86613989Y-67111902D02*
X88285331Y-65440560D01*
X88285331Y-65440560D02*
X100942240Y-65440560D01*
X103626600Y-62756200D02*
X103626600Y-62328000D01*
X102562600Y-62943800D02*
X102562600Y-62756200D01*
X100421451Y-65084949D02*
X102562600Y-62943800D01*
X88138033Y-65084949D02*
X100421451Y-65084949D01*
X86127432Y-67095550D02*
X88138033Y-65084949D01*
X86461600Y-78089900D02*
X86127432Y-77755732D01*
X86127432Y-77755732D02*
X86127432Y-67095550D01*
X102562600Y-62756200D02*
X102562600Y-62328000D01*
X96546800Y-63381760D02*
X96509840Y-63418720D01*
X96546800Y-62298600D02*
X96546800Y-63381760D01*
X84952840Y-65942342D02*
X86349645Y-64545537D01*
X84952840Y-81437480D02*
X84952840Y-65942342D01*
X84322920Y-82067400D02*
X84952840Y-81437480D01*
X84322920Y-82989560D02*
X84322920Y-82067400D01*
X86349645Y-64545537D02*
X86780697Y-64545537D01*
X97610800Y-62298600D02*
X97610800Y-63349000D01*
X85338920Y-82181840D02*
X85338920Y-66067281D01*
X85338920Y-66067281D02*
X86097731Y-65308470D01*
X86097731Y-65308470D02*
X86524955Y-65308470D01*
X98039000Y-61348600D02*
X98567240Y-61876840D01*
X98567240Y-61876840D02*
X98567240Y-62921628D01*
X85730080Y-80815320D02*
X85730080Y-66481962D01*
X97610800Y-61348600D02*
X98039000Y-61348600D01*
X85801201Y-66410841D02*
X86106000Y-66106042D01*
X86339680Y-81424920D02*
X85730080Y-80815320D01*
X85730080Y-66481962D02*
X85801201Y-66410841D01*
X98567240Y-62921628D02*
X98567240Y-63352680D01*
X98136500Y-107562700D02*
X98136500Y-108165900D01*
X95323400Y-104749600D02*
X98136500Y-107562700D01*
X93218000Y-104749600D02*
X95323400Y-104749600D01*
X93218000Y-99899500D02*
X93218000Y-103384600D01*
X93218000Y-103384600D02*
X93218000Y-103779600D01*
X95378300Y-97739200D02*
X93218000Y-99899500D01*
X96231500Y-97739200D02*
X95378300Y-97739200D01*
X88049100Y-102514400D02*
X90331500Y-100232000D01*
X90331500Y-100232000D02*
X90331500Y-99009200D01*
X78816200Y-102514400D02*
X88049100Y-102514400D01*
X90331500Y-97739200D02*
X91833700Y-97739200D01*
X91833700Y-97739200D02*
X91948000Y-97624900D01*
X89489280Y-84726780D02*
X89489280Y-84785200D01*
X84322920Y-83959560D02*
X88722060Y-83959560D01*
X88722060Y-83959560D02*
X89489280Y-84726780D01*
X91968320Y-96469200D02*
X92049600Y-96387920D01*
X90331500Y-96469200D02*
X91968320Y-96469200D01*
X89944622Y-84427038D02*
X90249421Y-84731837D01*
X89121533Y-83603949D02*
X89944622Y-84427038D01*
X88150549Y-83603949D02*
X89121533Y-83603949D01*
X85338920Y-83151840D02*
X87698440Y-83151840D01*
X87698440Y-83151840D02*
X88150549Y-83603949D01*
X92121900Y-95199200D02*
X92303611Y-95017489D01*
X90331500Y-95199200D02*
X92121900Y-95199200D01*
X90692850Y-84282761D02*
X90997649Y-84587560D01*
X89658427Y-83248338D02*
X90692850Y-84282761D01*
X88366438Y-83248338D02*
X89658427Y-83248338D01*
X86339680Y-82394920D02*
X87513020Y-82394920D01*
X87513020Y-82394920D02*
X88366438Y-83248338D01*
X91770200Y-93929200D02*
X91978481Y-93720919D01*
X91978481Y-93720919D02*
X92283280Y-93416120D01*
X90331500Y-93929200D02*
X91770200Y-93929200D01*
X86461600Y-79059900D02*
X86954338Y-79552638D01*
X91434527Y-84107899D02*
X91739326Y-84412698D01*
X90219355Y-82892727D02*
X91434527Y-84107899D01*
X88579753Y-82892727D02*
X90219355Y-82892727D01*
X86954338Y-81267312D02*
X88579753Y-82892727D01*
X86954338Y-79552638D02*
X86954338Y-81267312D01*
X92710010Y-92659200D02*
X92842090Y-92527120D01*
X90331500Y-92659200D02*
X92710010Y-92659200D01*
X90664166Y-82537116D02*
X92195518Y-84068468D01*
X92195518Y-84068468D02*
X92500317Y-84373267D01*
X87309949Y-81120014D02*
X88727051Y-82537116D01*
X87309949Y-77431749D02*
X87309949Y-81120014D01*
X88727051Y-82537116D02*
X90664166Y-82537116D01*
X86931500Y-77053300D02*
X87309949Y-77431749D01*
X90581500Y-91389200D02*
X93059118Y-88911582D01*
X93059118Y-88911582D02*
X93059118Y-84114252D01*
X91126371Y-82181505D02*
X88874349Y-82181505D01*
X87811768Y-81118924D02*
X87811768Y-75421368D01*
X90331500Y-91389200D02*
X90581500Y-91389200D01*
X93059118Y-84114252D02*
X91126371Y-82181505D01*
X88874349Y-82181505D02*
X87811768Y-81118924D01*
X87811768Y-75421368D02*
X87477600Y-75087200D01*
X96616578Y-82346764D02*
X94198418Y-84764924D01*
X103780432Y-80730822D02*
X102164490Y-82346764D01*
X103780432Y-75406268D02*
X103780432Y-80730822D01*
X94198418Y-91307898D02*
X95549720Y-92659200D01*
X102164490Y-82346764D02*
X96616578Y-82346764D01*
X104114600Y-75072100D02*
X103780432Y-75406268D01*
X94198418Y-84764924D02*
X94198418Y-91307898D01*
X95549720Y-92659200D02*
X96231500Y-92659200D01*
X94554029Y-85101314D02*
X96952968Y-82702375D01*
X104148732Y-80865431D02*
X104148732Y-77400168D01*
X95514160Y-91389200D02*
X94554029Y-90429069D01*
X102311788Y-82702375D02*
X104148732Y-80865431D01*
X96231500Y-91389200D02*
X95514160Y-91389200D01*
X94554029Y-90429069D02*
X94554029Y-85101314D01*
X96952968Y-82702375D02*
X102311788Y-82702375D01*
X104148732Y-77400168D02*
X104482900Y-77066000D01*
X95615760Y-90119200D02*
X94909640Y-89413080D01*
X94909640Y-89413080D02*
X94909640Y-85248612D01*
X104851200Y-79416800D02*
X104851200Y-79021800D01*
X94909640Y-85248612D02*
X97100266Y-83057986D01*
X96231500Y-90119200D02*
X95615760Y-90119200D01*
X97100266Y-83057986D02*
X102459086Y-83057986D01*
X102459086Y-83057986D02*
X104851200Y-80665872D01*
X104851200Y-80665872D02*
X104851200Y-79416800D01*
X96231500Y-96469200D02*
X94543880Y-96469200D01*
X94543880Y-96469200D02*
X94371160Y-96296480D01*
X97480378Y-83504900D02*
X97368491Y-83616787D01*
X104686100Y-83504900D02*
X97480378Y-83504900D01*
X97149683Y-84175597D02*
X96936259Y-84389021D01*
X105033803Y-84175597D02*
X97149683Y-84175597D01*
X105702100Y-83507300D02*
X105033803Y-84175597D01*
X96231500Y-95199200D02*
X94802960Y-95199200D01*
X96231500Y-93929200D02*
X94945200Y-93929200D01*
X94945200Y-93929200D02*
X94932500Y-93941900D01*
X98034298Y-84757518D02*
X97603246Y-84757518D01*
X105467882Y-84757518D02*
X98034298Y-84757518D01*
X106718100Y-83507300D02*
X105467882Y-84757518D01*
X123088400Y-72462500D02*
X123088400Y-72857500D01*
X123088400Y-66233400D02*
X123088400Y-72462500D01*
X126569600Y-62752200D02*
X123088400Y-66233400D01*
X126569600Y-62324000D02*
X126569600Y-62752200D01*
X123088400Y-74222500D02*
X123088400Y-73827500D01*
X123088400Y-76272291D02*
X123088400Y-74222500D01*
X122783589Y-76577102D02*
X123088400Y-76272291D01*
X113766545Y-84861511D02*
X116090811Y-82537245D01*
X113766545Y-99885555D02*
X113766545Y-84861511D01*
X99187000Y-109016800D02*
X99187000Y-103733655D01*
X112229951Y-101422149D02*
X113766545Y-99885555D01*
X99187000Y-103733655D02*
X99306369Y-103614286D01*
X121005655Y-82537245D02*
X122783589Y-80759311D01*
X99306369Y-103614286D02*
X101498510Y-101422149D01*
X98136500Y-109435900D02*
X98767900Y-109435900D01*
X98767900Y-109435900D02*
X99187000Y-109016800D01*
X101498510Y-101422149D02*
X112229951Y-101422149D01*
X116090811Y-82537245D02*
X121005655Y-82537245D01*
X122783589Y-80759311D02*
X122783589Y-76577102D01*
X98742500Y-110705900D02*
X98136500Y-110705900D01*
X99542611Y-109905789D02*
X98742500Y-110705900D01*
X99542611Y-103880956D02*
X99542611Y-109905789D01*
X112377249Y-101777760D02*
X101645808Y-101777760D01*
X114122156Y-100032853D02*
X112377249Y-101777760D01*
X114122156Y-85008809D02*
X114122156Y-100032853D01*
X101645808Y-101777760D02*
X99542611Y-103880956D01*
X123672600Y-76191000D02*
X123139200Y-76724400D01*
X123672600Y-75796000D02*
X123672600Y-76191000D01*
X123139200Y-76724400D02*
X123139200Y-80906609D01*
X123139200Y-80906609D02*
X121152953Y-82892856D01*
X121152953Y-82892856D02*
X116238109Y-82892856D01*
X116238109Y-82892856D02*
X114122156Y-85008809D01*
X123672600Y-74431000D02*
X123672600Y-74826000D01*
X127633600Y-62324000D02*
X123672600Y-66285000D01*
X123672600Y-66285000D02*
X123672600Y-74431000D01*
X124117100Y-76386800D02*
X124335499Y-76168401D01*
X124117100Y-76781800D02*
X124117100Y-76386800D01*
X124335499Y-76168401D02*
X124335499Y-66484575D01*
X128061800Y-61374000D02*
X127633600Y-61374000D01*
X124335499Y-66484575D02*
X128333500Y-62486574D01*
X128333500Y-62486574D02*
X128333500Y-61645700D01*
X128333500Y-61645700D02*
X128061800Y-61374000D01*
X124117100Y-80431618D02*
X124117100Y-78146800D01*
X121300251Y-83248467D02*
X124117100Y-80431618D01*
X116385407Y-83248467D02*
X121300251Y-83248467D01*
X114477767Y-100180151D02*
X114477767Y-85156107D01*
X98136500Y-111975900D02*
X98818700Y-111975900D01*
X114477767Y-85156107D02*
X116385407Y-83248467D01*
X99898222Y-104028254D02*
X101793106Y-102133371D01*
X99898222Y-110896378D02*
X99898222Y-104028254D01*
X101793106Y-102133371D02*
X112524547Y-102133371D01*
X124117100Y-78146800D02*
X124117100Y-77751800D01*
X98818700Y-111975900D02*
X99898222Y-110896378D01*
X112524547Y-102133371D02*
X114477767Y-100180151D01*
X100253833Y-111734567D02*
X98742500Y-113245900D01*
X100253833Y-104175552D02*
X100253833Y-111734567D01*
X101940404Y-102488982D02*
X100253833Y-104175552D01*
X112671845Y-102488982D02*
X101940404Y-102488982D01*
X114833378Y-100327449D02*
X112671845Y-102488982D01*
X124206000Y-83002120D02*
X123604042Y-83604078D01*
X124206000Y-82702400D02*
X124206000Y-83002120D01*
X98742500Y-113245900D02*
X98136500Y-113245900D01*
X123604042Y-83604078D02*
X116570804Y-83604078D01*
X116570804Y-83604078D02*
X114833378Y-85341504D01*
X114833378Y-85341504D02*
X114833378Y-100327449D01*
X124206000Y-81337400D02*
X124206000Y-81732400D01*
X124790178Y-80753222D02*
X124206000Y-81337400D01*
X124790178Y-66532804D02*
X124790178Y-80753222D01*
X128635782Y-62687200D02*
X124790178Y-66532804D01*
X132564000Y-62298600D02*
X132175400Y-62687200D01*
X132175400Y-62687200D02*
X128635782Y-62687200D01*
X133628000Y-62561600D02*
X133628000Y-62298600D01*
X125298200Y-82126100D02*
X125298200Y-81731100D01*
X125145789Y-81578689D02*
X125145789Y-66680102D01*
X125145789Y-66680102D02*
X128694202Y-63131689D01*
X128694202Y-63131689D02*
X133057911Y-63131689D01*
X125298200Y-81731100D02*
X125145789Y-81578689D01*
X133057911Y-63131689D02*
X133628000Y-62561600D01*
X100609444Y-112292956D02*
X98386500Y-114515900D01*
X100609444Y-104322850D02*
X100609444Y-112292956D01*
X102087702Y-102844593D02*
X100609444Y-104322850D01*
X112819143Y-102844593D02*
X102087702Y-102844593D01*
X125298200Y-83337400D02*
X124675911Y-83959689D01*
X124675911Y-83959689D02*
X116718102Y-83959689D01*
X98386500Y-114515900D02*
X98136500Y-114515900D01*
X125298200Y-83096100D02*
X125298200Y-83337400D01*
X116718102Y-83959689D02*
X115188989Y-85488802D01*
X115188989Y-85488802D02*
X115188989Y-100474747D01*
X115188989Y-100474747D02*
X112819143Y-102844593D01*
X98386500Y-115785900D02*
X98136500Y-115785900D01*
X112966441Y-103200204D02*
X102235000Y-103200204D01*
X102235000Y-103200204D02*
X100965055Y-104470148D01*
X126377700Y-83802220D02*
X125864620Y-84315300D01*
X126377700Y-83581100D02*
X126377700Y-83802220D01*
X125864620Y-84315300D02*
X116865400Y-84315300D01*
X116865400Y-84315300D02*
X115544600Y-85636100D01*
X100965055Y-113207345D02*
X98386500Y-115785900D01*
X115544600Y-85636100D02*
X115544600Y-100622045D01*
X100965055Y-104470148D02*
X100965055Y-113207345D01*
X115544600Y-100622045D02*
X112966441Y-103200204D01*
X126377700Y-82216100D02*
X126377700Y-82611100D01*
X125745100Y-81583500D02*
X126377700Y-82216100D01*
X125730000Y-81583500D02*
X125745100Y-81583500D01*
X125501400Y-81354900D02*
X125730000Y-81583500D01*
X125501400Y-66827400D02*
X125501400Y-81354900D01*
X134056200Y-61348600D02*
X134315200Y-61607600D01*
X133628000Y-61348600D02*
X134056200Y-61348600D01*
X134315200Y-61607600D02*
X134315200Y-62712600D01*
X134315200Y-62712600D02*
X133540500Y-63487300D01*
X133540500Y-63487300D02*
X128841500Y-63487300D01*
X128841500Y-63487300D02*
X125501400Y-66827400D01*
X141918532Y-74060068D02*
X142252700Y-73725900D01*
X141918532Y-81534076D02*
X141918532Y-74060068D01*
X144382267Y-83997811D02*
X141918532Y-81534076D01*
X152501600Y-86626700D02*
X149872711Y-83997811D01*
X149872711Y-83997811D02*
X144382267Y-83997811D01*
X152501600Y-100533200D02*
X152501600Y-86626700D01*
X157073600Y-105105200D02*
X152501600Y-100533200D01*
X157073600Y-118907584D02*
X157073600Y-105105200D01*
X92486500Y-114515900D02*
X94183167Y-116212567D01*
X92236500Y-114515900D02*
X92486500Y-114515900D01*
X94183167Y-116212567D02*
X94183167Y-116761250D01*
X94183167Y-116761250D02*
X99138694Y-121716778D01*
X99138694Y-121716778D02*
X154264406Y-121716778D01*
X154264406Y-121716778D02*
X157073600Y-118907584D01*
X142252700Y-66005600D02*
X138571100Y-62324000D01*
X142252700Y-72755900D02*
X142252700Y-66005600D01*
X92704908Y-115785900D02*
X92236500Y-115785900D01*
X157429211Y-119054882D02*
X154411704Y-122072389D01*
X157429211Y-104940111D02*
X157429211Y-119054882D01*
X152857211Y-100368111D02*
X157429211Y-104940111D01*
X98991397Y-122072389D02*
X92704908Y-115785900D01*
X142299532Y-76003168D02*
X142299532Y-81412167D01*
X154411704Y-122072389D02*
X98991397Y-122072389D01*
X142633700Y-75669000D02*
X142299532Y-76003168D01*
X142299532Y-81412167D02*
X144529565Y-83642200D01*
X144529565Y-83642200D02*
X150020009Y-83642200D01*
X150020009Y-83642200D02*
X152857211Y-86479402D01*
X152857211Y-86479402D02*
X152857211Y-100368111D01*
X142633700Y-74304000D02*
X142633700Y-74699000D01*
X143027400Y-73910300D02*
X142633700Y-74304000D01*
X143027400Y-65341500D02*
X143027400Y-73910300D01*
X139635100Y-62324000D02*
X140009900Y-62324000D01*
X140009900Y-62324000D02*
X143027400Y-65341500D01*
X140063300Y-61374000D02*
X139635100Y-61374000D01*
X143383000Y-64693700D02*
X140063300Y-61374000D01*
X143383000Y-75878800D02*
X143383000Y-64693700D01*
X143027400Y-76629400D02*
X143027400Y-76234400D01*
X143027400Y-76234400D02*
X143383000Y-75878800D01*
X153212822Y-100170013D02*
X153212822Y-86332104D01*
X153212822Y-86332104D02*
X150167307Y-83286589D01*
X157784822Y-104742013D02*
X153212822Y-100170013D01*
X144676863Y-83286589D02*
X143027400Y-81637126D01*
X143027400Y-81637126D02*
X143027400Y-77994400D01*
X154559002Y-122428000D02*
X157784822Y-119202180D01*
X143027400Y-77994400D02*
X143027400Y-77599400D01*
X93472000Y-117055900D02*
X98844100Y-122428000D01*
X150167307Y-83286589D02*
X144676863Y-83286589D01*
X157784822Y-119202180D02*
X157784822Y-104742013D01*
X98844100Y-122428000D02*
X154559002Y-122428000D01*
X92236500Y-117055900D02*
X93472000Y-117055900D01*
X132715000Y-83944600D02*
X133931800Y-82727800D01*
X139599148Y-82727800D02*
X140030200Y-82727800D01*
X133931800Y-82727800D02*
X139599148Y-82727800D01*
X143598900Y-80581500D02*
X143598900Y-80848200D01*
X143789400Y-80391000D02*
X143598900Y-80581500D01*
X143789400Y-64008000D02*
X143789400Y-80391000D01*
X144590900Y-62298600D02*
X144590900Y-63206500D01*
X144590900Y-63206500D02*
X143789400Y-64008000D01*
X133362700Y-100215700D02*
X133362700Y-85957300D01*
X138290300Y-105143300D02*
X133362700Y-100215700D01*
X138290300Y-118920284D02*
X138290300Y-105143300D01*
X92938600Y-110705900D02*
X95250000Y-113017300D01*
X132715000Y-85309600D02*
X132715000Y-84914600D01*
X92236500Y-110705900D02*
X92938600Y-110705900D01*
X133362700Y-85957300D02*
X132715000Y-85309600D01*
X95250000Y-113017300D02*
X95250000Y-116319359D01*
X95250000Y-116319359D02*
X99567940Y-120637300D01*
X99567940Y-120637300D02*
X136573284Y-120637300D01*
X136573284Y-120637300D02*
X138290300Y-118920284D01*
X92989400Y-111975900D02*
X92236500Y-111975900D01*
X94894389Y-113880889D02*
X92989400Y-111975900D01*
X94894389Y-116466656D02*
X94894389Y-113880889D01*
X133756400Y-84927300D02*
X133756400Y-100106491D01*
X138645911Y-104996002D02*
X138645911Y-119067582D01*
X133756400Y-100106491D02*
X138645911Y-104996002D01*
X138645911Y-119067582D02*
X136720582Y-120992911D01*
X136720582Y-120992911D02*
X99420643Y-120992911D01*
X99420643Y-120992911D02*
X94894389Y-116466656D01*
X134350900Y-83362800D02*
X140145248Y-83362800D01*
X133756400Y-83957300D02*
X134350900Y-83362800D01*
X140145248Y-83362800D02*
X140576300Y-83362800D01*
X144157702Y-81508598D02*
X143954500Y-81711800D01*
X144157702Y-64223998D02*
X144157702Y-81508598D01*
X145654900Y-62298600D02*
X145654900Y-62726800D01*
X145654900Y-62726800D02*
X144157702Y-64223998D01*
X134188200Y-100035382D02*
X134188200Y-85575000D01*
X139001522Y-104848704D02*
X134188200Y-100035382D01*
X92938600Y-113245900D02*
X94538778Y-114846078D01*
X139001522Y-119214880D02*
X139001522Y-104848704D01*
X92236500Y-113245900D02*
X92938600Y-113245900D01*
X134501732Y-85261468D02*
X134835900Y-84927300D01*
X94538778Y-114846078D02*
X94538778Y-116613953D01*
X94538778Y-116613953D02*
X99273346Y-121348522D01*
X134188200Y-85575000D02*
X134501732Y-85261468D01*
X99273346Y-121348522D02*
X136867880Y-121348522D01*
X136867880Y-121348522D02*
X139001522Y-119214880D01*
X134835900Y-83957300D02*
X140713600Y-83957300D01*
X140713600Y-83957300D02*
X140881100Y-84124800D01*
X146083100Y-61348600D02*
X145654900Y-61348600D01*
X146304000Y-61569500D02*
X146083100Y-61348600D01*
X146304000Y-62674500D02*
X146304000Y-61569500D01*
X144538700Y-82321400D02*
X144538700Y-64439800D01*
X144538700Y-64439800D02*
X146304000Y-62674500D01*
X71462900Y-142146681D02*
X71462900Y-140944600D01*
X71462900Y-147709606D02*
X71462900Y-142146681D01*
X72432194Y-148678900D02*
X71462900Y-147709606D01*
X73139300Y-148678900D02*
X72432194Y-148678900D01*
X70612901Y-140094601D02*
X71462900Y-140944600D01*
X68973711Y-138455411D02*
X70612901Y-140094601D01*
X68973711Y-104305111D02*
X68973711Y-138455411D01*
X70764422Y-102514400D02*
X68973711Y-104305111D01*
X77846200Y-102514400D02*
X70764422Y-102514400D01*
M02*
